<svg width="265" height="46" fill="none" xmlns="http://www.w3.org/2000/svg"><g clip-path="url(#bmsw-logo-black__a)" fill="#252527"><path d="M12.49 44.85c.17.04.32.14.42.28.31-.38.45-.88.37-1.37-.39 0-.75.61-.79 1.09Zm1-1.65c.15.35.22.72.19 1.1.06.01.13.03.19.06.19-.48.18-1.02-.03-1.5-.17.04-.31.17-.35.35m.96.36c.15-.41.13-.86-.05-1.25-.04-.06-.28.08-.33.24.16.3.24.64.25.98.05 0 .09 0 .13.03Zm11.09-.65c.19.03.38.1.54.2.22-.39.3-.84.22-1.28-.44.04-.77.77-.76 1.08Zm1.01-1.56c.12.26.19.54.21.83.06 0 .12 0 .19.02.15-.41.13-.87-.05-1.27-.1-.03-.26.22-.34.42m.9-.34c.06-.32 0-.66-.14-.95-.1-.06-.22.13-.27.35.13.18.22.38.28.6h.13ZM17.27 27.11c-.54.18-1.02.49-1.42.9-.05.4-.08.8-.07 1.2.4-.23.52-.65.97-1.01.82-.65 1.22-.74 1.17-.83-.09-.17-.48-.26-.65-.26Zm8.86 12.09c-1.24-.13-2.42.98-3.2.49-.46-.34-.86-.76-1.18-1.24-.22-.32-.83-1.24-.78-1.6.02-.15.27-.26.7-.54.71-.45 1.4-.93 2.06-1.46.76-.62 1.94-1.54 1.95-2.75-.08-.84-.42-1.64-.97-2.29a11.67 11.67 0 0 0-3.28-2.61c-.71-.4-1.44-.77-2.19-1.09-.62.35-.93.44-1.46.73.39.15.7.41.64.62-.04.13-.14.16-.6.47-.26.18-.52.37-.76.58-.29.32-.57.65-.82 1-.14.16-.29.3-.46.42 0 .17-.01.33-.02.56 2.02.06 3.84.64 4.72 1.77.16.2.29.42.4.65.29.86-.06 1.81-.84 2.28-.56.37-1.84.6-2.2.94-.28.26-.3.73-.63 1.14-.15.17-.33.31-.53.41.21.25.53.39.85.37.14-.11.26-.24.36-.38.12-.19.18-.4.17-.62 0-.06.09-.13.13.08.2 1.05-1.02 1.17-.8 2.34.27-.21.62-.29.96-.23.1-.17.22-.34.34-.5.1-.17.15-.37.13-.57 0-.08.1-.11.14.16.12.76-.68.95-.35 2.14.24-.19.54-.28.84-.26.16-.2.24-.46.23-.72-.01-.08.08-.17.15.11.13.56-.34.77-.1 1.51.84-.34 1.06.27 1.43.75.21.32.45.61.72.88.56.43 2.15.06 3.34.19.04-.61.44-1.14 1.01-1.36-.2-.59-.84-.9-1.43-.7-.15.05-.29.13-.41.24-.08.08-.03-.13.13-.26.6-.42 1.41-.29 1.85.29.09-.22.26-.42.4-.42-.36-.69-1.2-.96-1.9-.61a.76.76 0 0 0-.19.12c-.05.04-.06-.07.1-.22a1.59 1.59 0 0 1 2.06.25c.04-.23.16-.4.28-.4-.24-.34-.6-.56-1.01-.63m6.65-17.25c-.38.26-.38.86-.32 1.25.18-.04.37-.03.55.03.11-.44.03-.9-.23-1.28Zm.72.28c0-.49-.19-.96-.51-1.33-.13.02-.16.33-.14.54.24.22.42.5.51.82.05-.01.09-.02.14-.02m-.4-1.67c.2.21.36.45.46.72.04-.01.07-.02.11-.02 0-.42-.16-.83-.45-1.14-.11-.03-.16.29-.13.44M31.55 9.77c-.25-.34-.65-.54-1.07-.53-.1.39.41.85.76.98.06-.17.17-.33.32-.44m-.68-1.02a1.53 1.53 0 0 0-1.32-.38c-.04.18.22.43.4.54.28-.1.58-.11.87-.04.01-.03.03-.07.06-.12m-2.5 1.23c-.16-.39-.15-.83.04-1.2.11-.2.25-.38.44-.52a.447.447 0 0 1-.37-.29c-1.32.71-.63 2.07-.77 3.29-.08.76-1.05 1.03-1.68 1.42-.52.31-1.01.67-1.45 1.09.68 1.61.22 1.97.97 2.74-.14.16-.34.25-.55.26 0 .65-.08 1.29-.25 1.91.56-.22.97.15 1.43-.3-.35-.32-.48-.81-.33-1.26.06-.2.15-.17.15-.12 0 .08.01.17.03.25.38.09.78.04 1.12-.14-.59-1.01.54-1.91 1.4-2.47.7-.36 1.33-.83 1.88-1.39.57-.77.29-1.62.66-2.76-.43-.22-1.01-.65-.94-1.26-.46.06-.99.62-.7 1.58.05.17-.05.12-.15-.04-.32-.59-.16-1.33.38-1.73a.817.817 0 0 1-.41-.62c-.66.25-1 .98-.76 1.65.02.12-.07.12-.16-.11m1.44-2.16c-.33-.15-.7-.15-1.03 0-.1.09.03.22.33.28.21-.1.45-.16.68-.16 0-.04 0-.08.02-.12Zm-8.53-1.16s-.04.05-.08.11c-.08.12-.18.24-.28.33.17 0 .34 0 .5.04 0-.17-.04-.33-.13-.48m-2.6.43c.16.53 1.1.03 1.84-.03.2-.15.37-.34.51-.55-.83-.27-1.73-.04-2.34.58m2.79-1.7c.06.14.1.28.13.42 0 .07 0 .14.04.12.19-.14.32-.33.38-.55-.19.02-.37.03-.56.01m-2.96 1.2c.82-.58 1.86-.75 2.83-.48-.03-.25-.11-.49-.24-.71-1.31-.22-2.56-.24-2.58 1.19M14.69.55c-1.29.01-2.58.11-3.86.3-.17 0-.33-.04-.49-.1-.07.2-.07.43 0 .63-.66.4-.74 1.17-1.62 1.03-.04.26.06.52.26.69.09-.03.27-.1.25-.01-.21.63-.33 1.28-.37 1.94-.05.3-.48.58-.87.66-.03.34.18.65.51.73.22-.45.55-.52.5-.39-.11.3-.17.62-.18.94 0 .94.18 1.86.54 2.73.61 1.43 1.38 2.57.32 3.24.31.4.86.55 1.33.36.14-.35.15-.74.05-1.1-.01-.05.04-.06.09-.02.27.33.37.77.27 1.18-.16 1.07-1.08 2.4-.44 3.65.22-.18.47-.31.75-.37-.01-.53.22-1.05.63-1.39.22-.16.26-.06.2 0-.42.8-.53 1.72-.31 2.6.16 1.2-.22 1.91-.58 2.1.51.21 1.08.18 1.56-.09.36-.2.66-.48.87-.83-.34-.54-.47-1.2-.34-1.83.09-.35.29-.48.25-.31-.27 1.51 1.17 2.21 1.14 3.69.75-.37 1.16-1.18 1.01-2 .01-.11.1-.06.14.06.43 1.21-.34 2.89-1.77 2.74.14-.66.06-1.35-.24-1.96-.2.37-.49.68-.86.88-.04.33-.11.66-.19.98-.19.88-.63 1.68-1.27 2.32-1.35 1.38-1.84 1.49-2.72 2.77-.34.27-.71.49-1.11.65-2.66 1.05-4.9-.38-4.72-3.24.19-1.3.58-2.57 1.15-3.75 1.4-3.19 2.71-5.87 2.88-8.3.14-2-.72-4-2.81-4.02-1.42-.01-2.78 1.15-2.81 3.48.13 1.15-.07 2.31-.58 3.35-.11.18-.23.35-.35.52.86.07 1.7-.3 2.24-.98.08.12.14.26.18.4.57-.69.75-1.62.48-2.48.37.1.75-.1.88-.46-.9-.14-1.51-.97-1.38-1.87v-.05c.1-.64.6-1.14 1.24-1.25 1.74-.2 2.25 1.56 2.23 3.23-.03 2.12-1.31 4.46-2.44 6.83-.91 1.91-1.95 3.85-2.05 5.67-.12 2.01.81 5.61 5.82 4.83.2-.58.45-.81.6-.75.05.02.01.12-.01.31-.09.55-.12 1.11-.09 1.67.06 1.31.63 2.61.69 3.55.1 1.49-.66 1.66-1.88 1.8-.59 0-1.18.09-1.74.26-.27.13-.45.8-.71 1.14-.27.32-.64.53-1.05.58.22.38.64.61 1.08.59.24-.22.4-.51.45-.83.02-.08.11-.14.1.16-.08.86-.71 1.58-1.56 1.76.24.41.69.65 1.17.6.38-.21.65-.57.76-.99.03-.13.12-.07.11.1-.02.44-.23.85-.57 1.14-.34.27-.5.71-.42 1.14.29-.11.61-.13.92-.06.22-.19.37-.45.43-.74.02-.12.14-.09.12.18-.05.65-.58.95-.45 1.56 1.27-.61 1.41 1.66 2.41 2.34.82.57 2.35.23 3.73.33.06-.61.46-1.13 1.03-1.35-.21-.58-.84-.89-1.43-.68-.1.03-.19.08-.27.14-.1.07-.07-.07.04-.16.55-.4 1.31-.32 1.76.19.09-.17.25-.3.44-.35a1.399 1.399 0 0 0-2.04-.57c-.12.08-.09-.1.13-.23.72-.43 1.65-.2 2.09.51.08-.13.25-.29.38-.28-.28-.6-.9-.96-1.56-.91-1.3.02-2.4.89-2.87.22a7.07 7.07 0 0 1-1.25-3.77c0-.14 0-.27.13-.31 1.01-.23 1.96-.42 2.81-.69.94-.22 1.8-.7 2.48-1.38.7-.82.89-2.67 1.01-4.16.06-.72.13-1.77.18-2.56.09-1.26.35-2.06.84-2.29.12-.06.19 0 .09.18-.15.3-.24.62-.28.95.22-.17.46-.33.7-.46.64-.35 1.08-.54 1.78-.91.64-.34 1.25-.74 1.81-1.19.36-.27.69-.59.97-.94-.07-.1-.14-.21-.19-.32-.39.5-.98.8-1.62.8a1.46 1.46 0 0 0-.42-1.45c-.35-.26-.68-.55-.98-.86-.91-1-.13-3.12-1.07-4.39-.06-.13.08-.1.23.05.48.6.75 1.34.76 2.11.02.61.16 1.2.4 1.76.51.8 1.66.97 1.61 2.17.37-.1.82-.45.84-.76a.99.99 0 0 0-.28-.61c-.05-.04-.02-.11.13-.06.27.08.41.42.52.67.11.26.26.5.44.72.33.38.74.58.8 1.21.39-.11.68-.43.76-.83-.16-.47-.06-.9-.54-1.22-.06-.04-.03-.15.23-.04.62.26.52.99.82 1.4.2.3.5.51.85.59.02-.4.22-.76.54-1a.661.661 0 0 0-.3-.52c-.06-.05-.05-.15.22-.01.56.28.4 1.08 1.14 1.4.21-.66 1.02-.43 1.78-.23.41.12.83.2 1.26.23 1.52.08 1.77-.95 3.1-1.28-.16-.56.03-1.15.47-1.53-.44-.46-1.18-.48-1.64-.04-.05.05-.1.11-.14.17-.07.09-.06-.07.04-.22.39-.54 1.12-.71 1.71-.38 0-.21.07-.55.2-.55-.59-.52-1.49-.46-2.01.12-.07.08-.05-.07.03-.2.5-.61 1.38-.72 2.02-.26 0-.13.06-.42.22-.43-.35-.35-.85-.52-1.35-.46-1.53.15-1.95 1.84-3.6 1.7-.51-.13-1.01-.31-1.49-.53-.39-.13-.86-.26-1.29-.37-1.18-.28-2.28-.29-2.89-1.09-.24-.31-.4-.68-.45-1.07-.04-.22.05-.32.11-.17.36.71.74 1.37 1.64 1.55.43-.91.64-1.92.6-2.92-.39-.18-.39-.35-.51-.41.06.65-.11 1.31-.48 1.85-.13-.7-.66-1.27-1.35-1.45-.08-.02-.09-.15.25-.13.38.03.74.2 1.01.47.18-.72.12-1.48-.18-2.15-.19-.45-.49-.84-.87-1.14-.08-.06-.05-.15.22-.01.77.41 1.28 1.18 1.36 2.05.37.22.52.7 1.04.56-.44-.5-.22-1.33-.92-2.54-.39-.68-.99-1.21-1.71-1.52-1.03-.51-2.28-.87-3.08-1.19a1.893 1.893 0 0 1-1.41-1.91c-.24-.12-.46-.29-.61-.51-.15.17-.24.39-.25.62-.5-.26-.83-.74-.88-1.3-.17.02-.51 1.01-1.77.54.75-.78-.28-1.4.53-2.33.15-.19.38-.24.28-.1-.74 1.05.15 1.41-.19 2.1.8.08.84-.98 1.54-.96-.12.46 0 .94.3 1.3.14-.28.39-.5.68-.61.11.51.52.91 1.04 1 .75.17 1.6-.28 2.21-.19.36.04.68.26.83.58.32-.44.49-.98.47-1.53-1.2-.75-3.14.86-3.7-.5a1.64 1.64 0 0 1-.11-.82c.17-1.1.89-1.62 2.19-1.53.57.04 1.82.31 2.16.06.28-.21.2-.98.03-1.32-.34-.09-.73-.32-.71-.57.02-.22.22.24.67.11.13-.06.19-.51.11-.54-.83-.3-1.71-.42-2.58-.34-.13.39-.44.43-.46.73 0 .41-.15.8-.42 1.1-.08.06-.08-.03-.03-.19.09-.24.1-.5.04-.74-.2-.44-1.06-.38-1.08-.86-.01-.2.1-.18.95.02.36.08.39.09.44-.02.14-.32-.35-.49-.77-.59-.97-.28-2-.3-2.99-.07.51.24.64.73.48.96-.11.15-.03-.24-.6-.59-.63-.38-1.73-.44-1.95-.14-.12.29-.16.6-.12.91.04.44.27.83.63 1.08.6.4 1.01.18.95.31-.13.27-.91.24-1.37-.13-.41-.31-.68-.77-.74-1.27-.07-.42 0-.85.19-1.23a1.9 1.9 0 0 1 1.62-.23c.58-.18 1.18-.25 1.79-.23-.54-.34-1.16-.51-1.8-.5m7.69 4.87c-.12.3-.33.55-.6.73.5.12 1.02.17 1.54.15.44 0 .78-.37.77-.81 0-.14-.04-.28-.12-.4-.02-.04-.01-.15.14-.07a.995.995 0 0 1-.19 1.8c-.79.11-1.6.03-2.35-.25.09.17.15.35.18.53.18.05.64.18.63.35-.05.56-.18 1.11-.38 1.63-.19.43-.54.93-.97.99.09-1.49-1.57-.46-2.51-.77-.08 1.06 1.58 1.34 3.35 2.1.98.34 1.82.97 2.43 1.81.69-.51 1.44-.96 2.22-1.33.35-.18.67-.34.74-.67.04-.46.03-.92-.03-1.37-.28-2.07 1.73-3.21 3.08-2.16-.05.08-.07.17-.08.26.43.12.82.35 1.15.65-.09.1-.15.21-.2.33.4.18.72.49.92.88-.18.18-.33.38-.44.6-.2.59-.32 1.19-.37 1.81-.09.55-.31 1.07-.64 1.52-.74.87-2.25 1.35-2.99 2.27-.25.31-.26.99.18 1.14-.4.44-.99.65-1.58.56.1.29.34.49.64.54-.63 1.26-1.75.63-2.29.97-.04.13-.09.25-.14.38.84.16 1.66.39 2.45.71.57.36 1.25.49 1.92.38.44-.24.84-.53 1.2-.88.57-.54 1.36-.79 2.14-.69 1.18.2 2 1.29 1.86 2.48a1.31 1.31 0 0 0-.28 0c.06.34.08.68.06 1.02a.915.915 0 0 0-.33 0c.01.4-.07.8-.24 1.16-.33-.12-.7-.13-1.04-.04-1 .32-1.66 1.4-3.24 1.27-.41-.04-.82-.11-1.22-.2-.36-.12-.73-.2-1.11-.23-.29.04-.3.22-.36.53a1.4 1.4 0 0 1-1.22-.91c-.31.22-.28.62-.29.99-.57-.01-1.1-.27-1.46-.72-.29.53-.84.85-1.44.85.06-.36-.05-.73-.31-1.01-.43.51-.93.95-1.49 1.32 1.33.65 2.59 1.45 3.73 2.4 1.07.92 2.33 2.37 2.4 3.84.07 1.59-1.07 2.51-1.99 3.19-.92.68-1.67 1.22-2.53 1.8-.08.05-.07.09-.05.16.2.59.49 1.14.86 1.64.2.25.59.71.98.72.6.02 1.46-.53 2.15-.62 1.08-.17 2.08.57 2.25 1.65.06.36 0 .73-.13 1.07-.1-.05-.2-.07-.31-.06 0 .45-.1.89-.29 1.29a.934.934 0 0 0-.36-.14c-.08.45-.28.87-.58 1.22-.2-.16-.44-.25-.69-.28-2.14-.09-3.13.19-3.9-.3-.28-.25-.53-.55-.73-.87-.23-.3-.48-.76-.72-.82a.607.607 0 0 0-.64.2c-.23-.29-.33-.66-.28-1.02a.99.99 0 0 0-.8.36c-.26-.41-.36-.9-.29-1.38-.36-.04-.72.11-.94.4a1.62 1.62 0 0 1-.07-1.62c-.51-.1-.93-.45-1.12-.94.85-.36.97-.91 1.26-1.52.37-.8 2.75-.9 3-2.03.06-.37 0-.74-.17-1.07-.64-1.19-2.66-1.56-4.39-1.55-.04.86-.16 1.71-.37 2.55-.16.67-.47 1.29-.91 1.82-.7.63-1.55 1.06-2.47 1.26-.91.27-1.71.45-2.66.67-.04.93.16 1.86.57 2.69.27.57.37.88.84.81.7-.23 1.42-.38 2.15-.46 1.21.07 2.14 1.11 2.07 2.32-.02.36-.13.71-.32 1.02a.849.849 0 0 0-.26-.11 2.7 2.7 0 0 1-.37.99c-.1-.08-.22-.13-.34-.17-.13.41-.38.77-.72 1.04-.21-.23-.51-.37-.82-.39-2.31-.09-3.31.25-4.24-.6-.33-.35-.58-.75-.75-1.2-.39-.91-.7-1.41-1.38-.75-.27-.38-.31-.87-.13-1.3-.33-.06-.67 0-.96.16-.24-.47-.22-1.03.05-1.48a1.57 1.57 0 0 1-1.35-1.29c.4 0 .78-.17 1.08-.44-.63-.16-1.1-.68-1.2-1.32.38.02.76-.08 1.08-.28.56-.44.38-1.32 1.25-1.61 1.06-.35 3.09.12 3.16-1.18-.1-.76-.28-1.51-.54-2.24a8.64 8.64 0 0 1-.28-2.21c-4.81.46-6.35-2.73-6.21-5.31.11-2.11.87-3.58 2.09-6.01 1.51-3 2.6-5.16 2.51-7.22-.04-.94-.39-2.05-1.09-2.24a1.17 1.17 0 0 0-1.46.79c-.12.4-.02.83.26 1.13.29.31.72.47 1.15.4.08.57-.28 1.1-.83 1.24.22 1.12-.28 2.26-1.26 2.86-.02-.14-.04-.27-.09-.4-.66.51-2.07 1.05-2.98.43.27-.31.41-.47.58-.71.4-.51.64-1.12.7-1.76.04-.71.07-1.41.09-1.99.05-1.83 1.26-3.73 3.5-3.56 1.88.14 2.95 1.68 3.05 3.74.11 2.38-1.09 5.1-2.71 8.91-.68 1.34-1.09 2.8-1.2 4.3a2.498 2.498 0 0 0 2.44 2.57h.02c.86 0 1.7-.3 2.36-.85.13-.16.25-.32.36-.49 1.07-1.49 3.27-2.45 3.4-4.8a1.58 1.58 0 0 1-1.84-.77c.66-.24 1.13-.78.96-2.15-.01-.13-.03-.31-.03-.47-.35.07-.65.29-.83.6-1.19-1.24-.58-2.81-.17-3.9-.81.04-1.54-.5-1.74-1.29.41-.03.72-.37.71-.77-.07-.42-.21-.83-.41-1.2a8.05 8.05 0 0 1-.97-3.72c-.61-.34-.97-.99-.93-1.69.56-.04.97-.31.98-.67.01-.4.07-.79.18-1.18-.39-.44-.48-1.08-.22-1.61.28.07.58.05.85-.06.19-.23.4-.44.62-.65-.05-.38.04-.77.26-1.09.22.09.44.15.68.17 1.11.11 3.76-.67 5.72.07.38.14.72.36 1.01.64.46.05.91.13 1.36.24.44.12.88.27 1.3.46.14.03.55.06.95.09.66.04 1.31.22 1.9.52.22.24 0 .67 0 1.14.01.43.23 1.21-.07 1.72-.11.16-.28.26-.47.28"/><path d="M15.73 3.091c-.06.28-.3.34-.3.14 0-.59-.62-.89-1.26-.94-.17-.01 0-.14.18-.16.62-.06 1.52.33 1.38.96Zm-5.3 5.22c-.22 1.25.46 1.33.49 2.25.5.03.98-.23 1.22-.67.04-.07.09 0 .05.16a1.46 1.46 0 0 1-1.78 1c.36-.84-.68-1.65-.12-2.68.11-.2.16-.16.15-.06m2.22 3.391c.07-.09.13-.06.11.02-.62 2.07.91 2.22 1.02 4 .58-.2 1.01-.7 1.13-1.3.05-.17.13-.07.12.15 0 .37-.11.74-.3 1.06-.34.55-.97.86-1.61.78.48-1.56-.83-2.14-.83-3.54 0-.42.13-.82.36-1.17Zm8.11 3.728c-.05-.07-.06-.21.22.04 1.24 1.13.02 3.11.85 4.09-.91.38-1.95-.05-2.34-.95 0-.02-.02-.04-.02-.06-.06-.33.18.11.49.32.31.21.68.31 1.05.29-.32-1.22.67-2.25-.25-3.73Zm17.06-1.309v11.01h11.01l-11.01-11.01Z"/><path d="M37.58 25.22h11.34V13.88H37.58v11.34Zm.33-11.01h10.68v10.68H37.91V14.21Zm25.87.76c0 2.18-1.75 3.62-4.42 3.62h-6.53V6.48h6.48c2.29 0 3.93 1.19 3.93 3.13 0 1.1-.48 1.94-1.44 2.35 1.14.42 1.99 1.55 1.99 3.01h-.01Zm-7.14-5.54v1.68h2.12c.61 0 .92-.39.92-.85 0-.46-.34-.83-.92-.83h-2.12Zm2.33 6.14c.77 0 1.22-.36 1.22-1s-.43-1.02-1.16-1.02h-2.4v2.02h2.34Zm15.7-.52h-6.41c.17 1.04.71 1.5 1.62 1.5.54 0 .97-.17 1.24-.53l3.26.2c-.68 1.68-2.26 2.7-4.54 2.7-3.06 0-4.93-1.87-4.93-4.71s1.99-4.71 4.9-4.71c3.38 0 4.86 2.55 4.86 5.05v.5ZM68.3 13.2h2.91c-.14-.92-.63-1.31-1.43-1.31-.8 0-1.29.39-1.48 1.31Zm14.28-3.57v2.96c-.27-.03-.54-.05-.78-.05-1.65 0-2.41.75-2.41 2.14v3.91h-3.43V9.82h3.2l.1 1.22c.39-.75 1.17-1.53 2.43-1.53.26 0 .54.03.9.12h-.01Zm7.16.19h3.43v8.77h-3.14l-.12-1.1c-.65.92-1.56 1.36-2.74 1.36-2.07 0-3.31-1.14-3.31-3.26V9.83h3.43v4.93c0 .85.44 1.29 1.12 1.29.78 0 1.33-.63 1.33-1.56V9.82Zm10.18-1.11c-.66 0-.82.25-.82.75v.39l1.77-.03v2.11l-1.77-.03v6.7h-3.43v-6.7l-1.39.03V9.82l1.39.03v-.37c0-1.55.58-2.99 3.5-2.99h1.7v2.23h-.95v-.01Zm1.891 7.34 3.21-.15c.1.7.54 1.04 1.43 1.04.89 0 1.34-.34 1.34-.82 0-.39-.29-.66-.99-.75l-1.39-.17c-2.33-.29-3.43-1.14-3.43-2.77 0-1.92 1.62-2.94 4.32-2.94 2.52 0 3.96.92 4.32 2.63l-3.11.14c-.12-.59-.56-.87-1.38-.87-.82 0-1.16.26-1.16.68 0 .42.37.63 1.09.71l1.39.17c2.46.31 3.47 1.26 3.47 2.82 0 2.19-1.96 3.14-4.61 3.14-2.82 0-4.23-1.09-4.5-2.87v.01Zm25.269-3.17v5.71h-3.43v-5.1c0-.88-.44-1.26-1.02-1.26-.71 0-1.19.56-1.19 1.34v5.01h-3.43v-5.1c0-.88-.44-1.26-1.02-1.26-.71 0-1.19.56-1.19 1.34v5.01h-3.43V9.8h3.14l.12 1.1c.61-.93 1.48-1.41 2.58-1.41s2.07.48 2.65 1.41c.75-1 1.68-1.41 2.86-1.41 1.97 0 3.37 1.16 3.37 3.37l-.01.02Zm7.77 5.71c-.14-.27-.25-.58-.32-1.04-.58.92-1.5 1.38-2.82 1.38-1.9 0-3.21-.97-3.21-2.7 0-1.29.66-2.28 2.75-2.6l3.08-.48v-.63c0-.48-.31-.78-1.1-.78-.7 0-1.02.24-1.07.95l-3.26-.12c.24-2 1.43-3.06 4.47-3.06 2.82 0 4.4.88 4.4 3.16v3.71c0 .82.14 1.6.49 2.21h-3.41Zm-.41-3.31v-.39l-1.5.27c-.78.14-1.09.39-1.09.85 0 .51.37.76 1.04.76.78 0 1.55-.37 1.55-1.5v.01Zm9.44-3.46v3.25c0 .63.29.95.85.95h.77v2.57h-1.99c-2.31 0-3.06-.75-3.06-3.06v-3.71l-1.34.03V9.81l1.34.03V7.15h3.43v2.69l1.62-.03v2.04l-1.62-.03Zm9.03-2h3.43v8.77h-3.14l-.12-1.1c-.65.92-1.56 1.36-2.74 1.36-2.07 0-3.31-1.14-3.31-3.26V9.83h3.43v4.93c0 .85.44 1.29 1.12 1.29.78 0 1.33-.63 1.33-1.56V9.82Zm11.76-.19v2.96c-.27-.03-.54-.05-.78-.05-1.65 0-2.41.75-2.41 2.14v3.91h-3.43V9.82h3.2l.1 1.22c.39-.75 1.17-1.53 2.43-1.53.25 0 .54.03.9.12h-.01Zm1.28-.92V6.48h3.43v2.23h-3.43Zm0 9.88V9.82h3.43v8.77h-3.43Zm9.31-6.77v3.25c0 .63.29.95.85.95h.76v2.57h-1.99c-2.31 0-3.06-.75-3.06-3.06v-3.71l-1.34.03V9.81l1.34.03V7.15h3.43v2.69l1.61-.03v2.04l-1.61-.03h.01Zm9.22 6.77c-.14-.27-.25-.58-.32-1.04-.58.92-1.5 1.38-2.82 1.38-1.9 0-3.21-.97-3.21-2.7 0-1.29.66-2.28 2.75-2.6l3.08-.48v-.63c0-.48-.31-.78-1.1-.78-.7 0-1.02.24-1.07.95l-3.26-.12c.24-2 1.43-3.06 4.47-3.06 2.82 0 4.4.88 4.4 3.16v3.71c0 .82.14 1.6.49 2.21h-3.41Zm-2.35-12.1v2.23h-3.43V6.49h3.43Zm1.94 8.79v-.39l-1.5.27c-.78.14-1.09.39-1.09.85 0 .51.38.76 1.04.76.78 0 1.55-.37 1.55-1.5v.01Zm2.92-8.79v2.23h-3.43V6.49h3.43Zm6.51 5.33v3.25c0 .63.29.95.85.95h.77v2.57h-1.99c-2.31 0-3.06-.75-3.06-3.06v-3.71l-1.34.03V9.81l1.34.03V7.15h3.43v2.69l1.62-.03v2.04l-1.62-.03Zm2.89 4.23 3.21-.15c.1.7.54 1.04 1.43 1.04.89 0 1.34-.34 1.34-.82 0-.39-.29-.66-.99-.75l-1.39-.17c-2.33-.29-3.43-1.14-3.43-2.77 0-1.92 1.61-2.94 4.32-2.94 2.52 0 3.96.92 4.32 2.63l-3.11.14c-.12-.59-.56-.87-1.38-.87-.82 0-1.16.26-1.16.68 0 .42.37.63 1.09.71l1.39.17c2.46.31 3.47 1.26 3.47 2.82 0 2.19-1.96 3.14-4.61 3.14-2.82 0-4.23-1.09-4.5-2.87v.01Zm10.3 0 3.21-.15c.1.7.54 1.04 1.43 1.04.89 0 1.34-.34 1.34-.82 0-.39-.29-.66-.99-.75l-1.39-.17c-2.33-.29-3.43-1.14-3.43-2.77 0-1.92 1.62-2.94 4.32-2.94 2.52 0 3.96.92 4.32 2.63l-3.11.14c-.12-.59-.56-.87-1.38-.87-.82 0-1.16.26-1.16.68 0 .42.37.63 1.09.71l1.39.17c2.46.31 3.47 1.26 3.47 2.82 0 2.19-1.96 3.14-4.61 3.14-2.82 0-4.23-1.09-4.5-2.87v.01Zm10.14-1.83c0-2.84 1.87-4.71 4.93-4.71 2.65 0 4.45 1.5 4.66 3.64l-3.38.17c-.05-.93-.49-1.43-1.24-1.43-.99 0-1.46.75-1.46 2.33s.48 2.33 1.46 2.33c.76 0 1.14-.44 1.22-1.48l3.38.17c-.27 2.21-2.04 3.69-4.64 3.69-3.06 0-4.93-1.87-4.93-4.71Zm20.14-1.4v5.76h-3.43v-4.93c0-.85-.44-1.29-1.12-1.29-.78 0-1.33.63-1.33 1.56v4.66h-3.43V6.48h3.43v4.22c.65-.77 1.5-1.14 2.57-1.14 2.07 0 3.32 1.14 3.32 3.26h-.01Zm7.58-3h3.43v8.77h-3.14l-.12-1.1c-.65.92-1.56 1.36-2.74 1.36-2.07 0-3.31-1.14-3.31-3.26V9.83h3.43v4.93c0 .85.44 1.29 1.12 1.29.78 0 1.33-.63 1.33-1.56V9.82Zm5.14 8.77V6.48h3.43v12.1h-3.43v.01Zm14.46-3.54h-6.41c.17 1.04.71 1.5 1.62 1.5.54 0 .97-.17 1.24-.53l3.26.2c-.68 1.68-2.26 2.7-4.54 2.7-3.06 0-4.93-1.87-4.93-4.71s1.99-4.71 4.9-4.71c3.38 0 4.86 2.55 4.86 5.05v.5Zm-6.38-1.85h2.91c-.14-.92-.63-1.31-1.43-1.31-.8 0-1.29.39-1.48 1.31ZM65.39 20.48h3.76l-3.5 12.1h-3.67l-.83-4.4-.53-3.25-.49 3.25-.78 4.4h-3.77l-3.5-12.1h3.74l1.14 4.61.54 3.13.49-3.11.94-4.62h3.37l1.02 4.62.48 3.04.49-3.06 1.12-4.61h-.02Zm4.7 2.23v-2.23h3.43v2.23h-3.43Zm0 9.88v-8.77h3.43v8.77h-3.43Zm14.44-5.77v5.76H81.1v-4.93c0-.85-.44-1.29-1.12-1.29-.78 0-1.33.63-1.33 1.56v4.66h-3.43v-8.77h3.14l.12 1.1c.65-.92 1.56-1.36 2.74-1.36 2.07 0 3.32 1.14 3.32 3.26l-.01.01Zm5.89-1v3.25c0 .63.29.95.85.95h.76v2.57h-1.99c-2.31 0-3.06-.75-3.06-3.06v-3.71l-1.34.03v-2.04l1.34.03v-2.69h3.43v2.69l1.61-.03v2.04l-1.61-.03h.01Zm12.47 3.23h-6.41c.17 1.04.71 1.5 1.62 1.5.54 0 .97-.17 1.24-.53l3.26.2c-.68 1.68-2.26 2.7-4.54 2.7-3.06 0-4.93-1.87-4.93-4.71s1.99-4.71 4.9-4.71c3.38 0 4.86 2.55 4.86 5.05v.5Zm-6.38-1.85h2.91c-.14-.92-.63-1.31-1.43-1.31-.8 0-1.29.39-1.48 1.31Zm14.29-3.57v2.96c-.27-.03-.54-.05-.78-.05-1.65 0-2.41.75-2.41 2.14v3.91h-3.43v-8.77h3.2l.1 1.22c.39-.75 1.17-1.53 2.43-1.53.25 0 .54.03.9.12h-.01Zm5.97 2.19v3.25c0 .63.29.95.85.95h.76v2.57h-1.99c-2.31 0-3.06-.75-3.06-3.06v-3.71l-1.34.03v-2.04l1.34.03v-2.69h3.43v2.69l1.61-.03v2.04l-1.61-.03h.01Zm12.46 1v5.76h-3.43v-4.93c0-.85-.44-1.29-1.12-1.29-.78 0-1.33.63-1.33 1.56v4.66h-3.43v-12.1h3.43v4.22c.65-.77 1.5-1.14 2.57-1.14 2.07 0 3.31 1.14 3.31 3.26Zm7.58-3h3.43v8.77h-3.14l-.12-1.1c-.65.92-1.56 1.36-2.74 1.36-2.07 0-3.31-1.14-3.31-3.26v-5.76h3.43v4.93c0 .85.44 1.29 1.12 1.29.78 0 1.33-.63 1.33-1.56v-4.67Zm11.76-.19v2.96c-.27-.03-.54-.05-.78-.05-1.65 0-2.41.75-2.41 2.14v3.91h-3.43v-8.77h3.2l.1 1.22c.39-.75 1.17-1.53 2.43-1.53.26 0 .54.03.9.12h-.01Z"/></g><defs><clipPath id="bmsw-logo-black__a"><path fill="#fff" d="M0 0h264.15v45.78H0z"/></clipPath></defs></svg>