<?xml version="1.0" encoding="UTF-8" standalone="no"?>
<!-- Created with Inkscape (http://www.inkscape.org/) -->

<svg
   xmlns:dc="http://purl.org/dc/elements/1.1/"
   xmlns:cc="http://creativecommons.org/ns#"
   xmlns:rdf="http://www.w3.org/1999/02/22-rdf-syntax-ns#"
   xmlns:svg="http://www.w3.org/2000/svg"
   xmlns="http://www.w3.org/2000/svg"
   xmlns:sodipodi="http://sodipodi.sourceforge.net/DTD/sodipodi-0.dtd"
   xmlns:inkscape="http://www.inkscape.org/namespaces/inkscape"
   width="194.32878mm"
   height="189.24355mm"
   viewBox="0 0 194.32878 189.24355"
   version="1.1"
   id="svg8"
   inkscape:version="0.92.5 (2060ec1f9f, 2020-04-08)"
   sodipodi:docname="LoeweMitWappen.svg">
  <defs
     id="defs2">
    <inkscape:path-effect
       effect="bspline"
       id="path-effect1012"
       is_visible="true"
       weight="33.333333"
       steps="2"
       helper_size="0"
       apply_no_weight="true"
       apply_with_weight="true"
       only_selected="false" />
  </defs>
  <sodipodi:namedview
     id="base"
     pagecolor="#ffffff"
     bordercolor="#666666"
     borderopacity="1.0"
     inkscape:pageopacity="0.0"
     inkscape:pageshadow="2"
     inkscape:zoom="1.4142136"
     inkscape:cx="539.33152"
     inkscape:cy="266.54219"
     inkscape:document-units="mm"
     inkscape:current-layer="layer1"
     showgrid="false"
     inkscape:window-width="3724"
     inkscape:window-height="2093"
     inkscape:window-x="66"
     inkscape:window-y="20"
     inkscape:window-maximized="1"
     fit-margin-top="0"
     fit-margin-left="0"
     fit-margin-right="0"
     fit-margin-bottom="0" />
  <metadata
     id="metadata5">
    <rdf:RDF>
      <cc:Work
         rdf:about="">
        <dc:format>image/svg+xml</dc:format>
        <dc:type
           rdf:resource="http://purl.org/dc/dcmitype/StillImage" />
        <dc:title></dc:title>
      </cc:Work>
    </rdf:RDF>
  </metadata>
  <g
     inkscape:label="Layer 1"
     inkscape:groupmode="layer"
     id="layer1"
     transform="translate(-2.1344767,-39.519606)">
    <g
       id="g930"
       transform="matrix(0.24010393,0,0,0.23893699,2.1344767,39.525058)">
	<path
   id="path920"
   d="m 215.7,775.9 c 2.8,0.9 5.9,2.6 7.5,4.9 3.5,-4.2 8.4,-14.3 6.3,-23.7 -6.8,0.1 -12.8,10.6 -13.8,18.8 M 233,747.4 c 2.6,4.9 4,13.8 3.3,19.2 0.9,0 2.1,0.5 3.3,0.9 2.1,-5.2 4.2,-17.8 -0.5,-26 -2.1,0.3 -5.4,2.6 -6.1,5.9 m 16.7,6.3 c 2.8,-8.2 1.9,-17.8 -0.9,-21.8 -0.7,-0.9 -4.9,1.4 -5.6,4.2 2.3,4 4.4,11.9 4.2,17.1 0.6,0 1.6,0.3 2.3,0.5 m 191.8,-11.2 c 3.7,0.7 7.3,2.1 9.4,3.5 1.9,-3 6.6,-15.5 3.7,-22.2 -7.5,0.6 -13.1,13.3 -13.1,18.7 m 17.5,-27 c 1.9,3.3 3.5,10.1 3.5,14.3 0.9,0 2.3,0 3.3,0.2 2.8,-8.2 1.9,-18.3 -0.9,-22 -1.7,-0.2 -4.7,4 -5.9,7.5 m 15.5,-5.8 c 0.9,-4.7 0,-13.3 -2.6,-16.4 -1.6,-1.2 -3.7,2.1 -4.7,6.1 2.1,2.8 4.4,7.5 4.9,10.3 1,0 1.7,0 2.4,0 M 298.4,468.9 c -10.8,4 -24.1,13.1 -24.6,15.5 -0.9,5.9 -1.2,14.5 -1.2,20.8 7,-4 8.9,-11.2 16.9,-17.6 14.1,-11.2 21.1,-12.9 20.4,-14.3 -1.9,-2.7 -8.5,-4.4 -11.5,-4.4 m 153.4,209.2 c -21.3,-2.1 -41.9,16.9 -55.3,8.4 -6.1,-3.7 -14.3,-12.6 -20.4,-21.5 -3.7,-5.6 -14.3,-21.3 -13.3,-27.6 0.5,-2.6 4.7,-4.7 12.2,-9.4 13.1,-8.2 24.6,-16.6 35.6,-25.3 13.1,-10.5 33.5,-26.7 33.7,-47.5 0.2,-14.3 -9.4,-30 -16.9,-39.6 -13.1,-16.9 -35.4,-33 -56.9,-45.2 -9.4,-5.4 -26.9,-14.5 -37.9,-19 -10.8,6.1 -16.2,7.7 -25.3,12.6 6.8,2.6 12.2,7 11,10.8 -0.7,2.3 -2.3,2.8 -10.3,8.2 -4.7,3 -10.3,7.7 -13.1,10.1 -5.9,5.4 -9.1,11.5 -14.1,17.3 -3,3.5 -4.9,4.9 -8,7.3 0,3 -0.2,5.9 -0.5,9.6 34.9,0.9 66.5,11 81.7,30.7 2.1,2.8 5.6,7.7 6.8,11.2 6.8,18.3 -4.7,33 -14.5,39.6 -9.6,6.3 -31.8,10.3 -37.9,16.2 -4.7,4.4 -5.2,12.6 -11,19.7 -2.6,3.3 -5.6,5.2 -9.1,7.3 1.9,3.7 9.4,6.8 14.8,6.3 2.1,-2.1 4.2,-3.3 6.3,-6.6 1.6,-2.6 3,-6.3 3,-10.8 0,-1.2 1.6,-2.3 2.1,1.4 3.5,18 -17.6,20.1 -13.8,40.5 4,-2.6 10.1,-5.6 16.6,-4 1.6,-3.5 4,-5.6 5.9,-8.7 1.2,-1.9 2.6,-4.7 2.3,-9.8 0,-1.4 1.6,-1.9 2.6,2.8 2.1,13.1 -11.7,16.4 -6.1,37 3.7,-3.3 9.1,-4.7 14.5,-4.4 1.4,-2.8 4.7,-5.9 4,-12.4 -0.2,-1.4 1.4,-2.8 2.6,1.9 2.3,9.6 -5.9,13.3 -1.6,26 14.5,-5.9 18.3,4.7 24.8,12.9 3.7,4.7 8.4,12.2 12.4,15.2 9.8,7.5 37,0.9 57.8,3.3 1.4,-11.2 8.7,-21.3 17.6,-23.4 -4.2,-14.1 -22.7,-17.3 -31.6,-8 -1.4,1.4 -0.5,-2.3 2.1,-4.7 8.7,-7.3 24.4,-5.2 32.1,4.9 1.6,-3.7 4.4,-7.3 6.8,-7.3 -6.6,-13.8 -25.5,-16.9 -36.1,-8.4 -0.9,0.7 -1.2,-1.2 1.9,-3.7 8.2,-7 25.3,-6.6 35.6,4.2 0.7,-4 2.8,-7 4.9,-7 -3.5,-4.6 -11.2,-10.4 -18,-11.1 m 115,-298.4 c -6.6,4.4 -6.6,15 -5.4,21.5 3.5,-0.7 6.3,-0.5 9.4,0.5 2,-6.8 -0.1,-17.8 -4,-22 m 12.4,4.9 c 0.2,-8 -4.2,-19 -8.9,-22.9 -2.3,0.2 -2.8,5.6 -2.6,9.4 4.4,3.7 7.5,9.4 8.9,14.1 0.9,-0.3 1.9,-0.6 2.6,-0.6 m -7.1,-28.8 c 3.3,3.3 6.6,8.2 8,12.4 0.5,-0.2 1.4,-0.5 1.9,-0.5 0.5,-5.6 -3,-15.7 -7.7,-19.7 -1.9,-0.4 -2.6,5.2 -2.2,7.8 M 545.7,168.5 c -4.4,-7 -13.8,-9.6 -18.5,-9.1 -1.6,6.8 7,14.8 13.1,16.9 1.9,-4.5 3.7,-6.7 5.4,-7.8 M 534,150.9 c -4.2,-4.2 -15,-9.1 -22.9,-6.6 -0.7,3.3 3.7,7.5 7,9.4 3.7,-1.4 9.1,-2.1 15,-0.7 0.2,-0.7 0.6,-1.4 0.9,-2.1 m -43.4,21.3 c -2.8,-8 -2.3,-13.8 0.7,-20.8 1.6,-3.3 5.2,-7.3 7.5,-8.9 -4.2,-0.9 -5.9,-3 -6.3,-4.9 -22.9,12.2 -11,35.8 -13.3,56.9 -1.4,13.1 -18,17.8 -29,24.6 -9.4,5.9 -18.7,12.2 -25.1,19 11.7,27.9 3.7,34 16.9,47.5 -2.3,2.6 -6.6,4.4 -9.6,4.7 -0.2,11.7 -1.2,22.5 -4.2,33 9.6,-4 16.9,2.6 24.8,-5.2 -7.5,-5.6 -7.7,-15.9 -5.9,-21.8 1.2,-3.3 2.6,-3 2.6,-2.1 0,1.6 0.2,3.3 0.7,4.2 4.2,1.2 13.3,1.6 19.4,-2.3 -10.3,-17.6 9.4,-33 24.4,-42.6 10.3,-6.8 25.3,-14.1 32.6,-24.1 9.8,-13.3 5.2,-27.9 11.5,-47.8 -7.5,-3.7 -17.3,-11.2 -16.4,-21.8 -8,0.9 -17.1,10.8 -11.9,27.4 0.9,2.8 -0.9,2.1 -2.6,-0.7 -6.6,-12.2 -0.7,-26 6.6,-30 -4.2,-2.6 -7.5,-7.7 -7,-10.5 -11.9,4.4 -15.7,14.8 -13.1,28.6 0,1.4 -1.6,1.6 -3.3,-2.4 m 25.1,-37.4 c -4.2,-2.1 -12.2,-3 -17.8,0 -1.9,1.6 0.5,3.7 5.6,4.9 4,-1.9 8.2,-2.8 11.7,-2.8 0,-0.7 0.3,-1.2 0.5,-2.1 m -147.5,-20 c -0.5,-0.2 -0.7,0.7 -1.4,1.9 -0.9,1.4 -2.6,3.7 -4.9,5.9 2.1,-0.2 6.6,0.2 8.7,0.7 -0.1,-3.3 -1.7,-8.2 -2.4,-8.5 m -45,7.5 c 2.8,9.1 19,0.5 31.8,-0.5 4,-3.3 7,-6.6 8.9,-9.6 -15.6,-3 -32.7,-1.1 -40.7,10.1 m 48.2,-29.5 c 1.2,2.8 2.1,6.1 2.3,7.3 0.2,1.2 0.2,2.3 0.7,2.1 2.1,-1.2 6.1,-6.1 6.6,-9.6 -2.5,0.5 -7.2,0.5 -9.6,0.2 m -51,20.9 c 10.8,-8.9 26.2,-12.2 48.9,-8.4 -0.2,-4 -2.3,-9.6 -4.2,-12.2 -22.9,-3.8 -44.2,-4.2 -44.7,20.6 M 254.1,9.5 c -34,-0.9 -45.9,4.2 -66.7,5.2 -4,0 -7.3,-1.2 -8.4,-1.6 -0.9,2.3 -1.4,8.2 0,11 -11.5,6.8 -12.9,20.4 -27.9,17.8 -0.9,4.2 1.6,9.8 4.4,11.9 1.6,-0.7 4.7,-1.6 4.2,-0.2 -6.1,17.3 -4.9,24.8 -6.6,33.5 -0.9,5.2 -8.4,10.1 -15.2,11.2 -0.5,4.7 2.6,11.5 8.9,12.6 4,-7.7 9.6,-9.1 8.7,-6.6 -1.6,4 -3,11 -3,16.2 -0.5,17.1 4,34.4 9.4,47.1 10.5,24.8 23.9,44.5 5.4,56.2 2.3,5.9 14.3,9.8 22.9,6.3 3.7,-9.6 1.4,-16.6 0.9,-19 -0.2,-0.9 0.7,-0.9 1.6,-0.2 5.4,4.4 5.6,13.3 4.7,20.4 -2.8,18.5 -18.5,41.7 -7.7,63.2 3.3,-3 8.4,-5.4 12.9,-6.6 0.7,-11.2 4.2,-19.2 10.8,-24.1 3.7,-2.8 4.4,-0.9 3.5,0.2 -8,9.8 -7.5,28.3 -5.4,45 2.6,20.8 -4,33 -10.1,36.3 7.7,4.9 20.4,1.9 26.9,-1.4 4.9,-2.6 12.2,-8.7 15.2,-14.5 -7.3,-12.4 -7.7,-24.1 -5.9,-31.6 1.4,-6.1 4.9,-8.2 4.2,-5.4 -4.7,26.2 20.4,38.2 19.7,63.7 12.9,-4.2 18.5,-19.9 17.6,-34.4 0.2,-1.9 1.9,-0.9 2.6,0.9 7.3,20.8 -6.1,50.1 -30.7,47.5 3.5,-12.4 -0.5,-26.9 -4.2,-34 -3.3,6.6 -9.1,11.9 -15,15.2 -0.7,6.6 -2.3,12.2 -3.3,16.9 -4,17.1 -11.2,29 -21.8,40 -23.2,23.9 -31.8,25.8 -47.1,48 -3.3,3.5 -13.3,8.9 -19.2,11.2 -46.1,18.3 -84.8,-6.6 -81.7,-56 1.2,-19.9 11.7,-45.9 19.9,-64.9 24.1,-55.3 46.8,-101.4 49.9,-143.8 C 130.8,168 116.1,133.4 80,133.1 55.4,132.9 32,153 31.3,193.3 c -0.2,23.7 0.2,41.7 -9.8,57.8 -2.1,3.5 -3.3,5.2 -6.1,8.9 14.1,2.3 28.8,-5.6 38.6,-16.9 0.9,1.6 2.6,4.4 3,7 10.3,-9.8 11.9,-28.3 8.2,-42.9 6.8,1.9 12.9,-2.1 15.2,-8 -15.7,-2.1 -26,-16.9 -23.7,-33.3 1.4,-9.6 10.1,-20.1 21.5,-21.5 30,-3.5 38.9,26.9 38.4,55.7 -0.5,36.8 -22.7,77 -42.2,118.3 -15.7,33 -33.7,66.7 -35.6,98.1 -2.1,34.9 13.8,97.2 100.7,83.6 3.5,-10.1 7.7,-14.1 10.3,-12.9 0.9,0.5 0.2,2.1 -0.2,5.4 -1.6,10.8 -2.1,17.3 -1.6,28.8 0.9,22.5 10.8,45.2 11.9,61.4 1.9,25.8 -11.5,28.8 -32.6,31.1 -8.9,0.9 -22,0.7 -30.2,4.4 -4.7,2.3 -7.7,13.8 -12.4,19.7 -4.4,5.9 -10.8,8.7 -18.3,10.1 2.3,5.9 10.1,10.1 18.5,10.3 3,-2.3 6.6,-7.7 8,-14.3 0.2,-1.4 1.9,-2.3 1.9,2.8 -0.5,13.6 -12.9,28.3 -26.9,30.4 2.6,6.6 12.4,11.5 20.1,10.5 6.1,-3.3 10.8,-9.1 13.1,-17.1 0.5,-2.3 2.1,-1.2 1.9,1.9 -0.2,8.2 -4.4,14.8 -9.8,19.7 -5.4,5.2 -9.1,11.7 -7.3,19.7 3.5,-1.9 10.5,-2.1 15.9,-1.2 2.6,-2.6 6.3,-6.6 7.5,-12.6 0.5,-2.1 2.3,-1.6 2.1,3 -0.9,11.2 -10.1,16.4 -7.7,27.2 22,-10.5 24.6,28.6 41.7,40.5 14.3,9.8 40.5,4 64.6,5.6 1.6,-10.5 8.4,-21.3 17.8,-23.4 -4,-15 -21.5,-14.5 -29.5,-9.4 -1.6,1.2 -1.2,-1.2 0.7,-2.8 9.8,-7.3 23.9,-4.9 30.4,3.3 1.6,-3 4.9,-5.6 7.5,-6.1 -6.8,-14.5 -23.4,-17.1 -35.4,-9.8 -2.1,1.4 -1.4,-1.6 2.3,-4 14.3,-8.2 29.5,-1.9 36.1,8.7 1.4,-2.3 4.2,-5.2 6.6,-4.9 -4,-9.4 -14.1,-15.9 -27.2,-15.7 -22.1,0.9 -41.1,15.9 -49.3,4.2 -9.4,-13.1 -20.8,-36.8 -21.8,-65.3 0,-2.3 0,-4.7 2.3,-5.4 17.3,-4 34,-7.3 48.7,-11.9 15.9,-5.2 31.6,-10.5 42.9,-23.9 12.2,-14.1 15.5,-46.1 17.3,-71.9 0.9,-12.4 2.1,-30.7 3,-44.3 1.6,-21.8 6.1,-35.6 14.5,-39.6 2.1,-0.9 3.3,0 1.6,3 -2.1,3.5 -4,10.3 -4.9,16.4 3.7,-3 8.7,-6.1 12.2,-8 11.2,-6.1 18.5,-9.4 30.9,-15.7 11.7,-6.1 22.9,-14.3 31.4,-20.8 5.4,-4.2 11.5,-9.1 16.9,-16.4 -1.4,-1.6 -2.6,-4 -3.3,-5.6 -6.1,8 -18.3,14.8 -27.9,13.8 2.6,-8.2 -0.5,-19.4 -7.3,-25.1 -7.5,-6.1 -12.2,-9.6 -17.1,-14.8 -15.9,-17.3 -2.3,-53.9 -18.5,-75.9 -1.2,-2.3 1.4,-1.6 4,0.9 9.4,8.9 11.2,22.7 13.1,36.5 1.4,10.3 2.1,22.7 7,30.4 8.7,13.8 28.8,16.9 27.9,37.5 6.3,-1.6 14.3,-7.7 14.5,-13.1 -0.2,-2.6 -1.6,-8 -4.9,-10.5 -0.9,-0.7 -0.2,-1.9 2.1,-1.2 4.7,1.4 7,7.3 9.1,11.5 2.1,4.7 4.4,8.7 7.7,12.4 5.9,6.6 12.9,10.1 13.8,20.8 5.4,-1.6 12.4,-7.3 13.1,-14.3 -2.8,-8 -0.9,-15.7 -9.4,-21.1 -1.2,-0.7 -0.7,-2.6 4,-0.7 10.8,4.4 9.1,17.3 14.3,24.1 3.5,4.7 7.5,8.7 14.5,10.1 0.7,-6.6 3.5,-13.6 9.4,-17.3 -0.5,-3.7 -1.2,-5.9 -5.2,-9.1 -1.2,-0.9 -0.9,-2.6 3.7,-0.2 9.6,4.9 6.8,18.7 19.7,24.1 3.7,-11.5 17.6,-7.5 30.9,-4 6.6,1.6 14.8,3.7 21.8,4 26.2,1.2 30.7,-16.4 53.6,-22 -1.6,-11.5 0.7,-22 8.2,-26.5 -9.6,-11.5 -25.5,-5.6 -30.9,2.3 -1.2,1.6 -1.2,-1.2 0.7,-3.7 7,-10.5 21.1,-11.5 29.5,-6.6 -0.2,-3.5 1.2,-9.4 3.3,-9.6 -6.3,-7 -24.8,-10.1 -34.7,2.1 -1.2,1.4 -0.9,-1.2 0.5,-3.5 7.3,-10.1 23.7,-12.9 34.9,-4.4 0,-2.3 1.2,-7.3 3.7,-7.5 -4.7,-5.6 -14.1,-8.9 -23.2,-8 -26.5,2.6 -33.7,31.8 -62.3,29.5 -6.6,-0.5 -12.9,-4.7 -25.8,-9.1 -6.8,-2.3 -15,-4.7 -22.5,-6.3 -20.4,-4.7 -39.3,-5.2 -49.9,-18.7 -3.5,-4.7 -6.6,-10.3 -7.7,-18.5 -0.7,-3.7 0.9,-5.6 1.9,-3 6.3,12.4 12.9,23.7 28.3,26.7 6.3,-12.2 11.2,-32.8 10.3,-50.6 -6.8,-3 -6.8,-6.1 -8.9,-7 0.9,13.6 -4.2,27.6 -8.4,32.1 -1.9,-12.6 -12.4,-22 -23.4,-25.1 -1.4,-0.5 -1.6,-2.6 4.2,-2.3 4,0.2 13.3,2.8 17.6,8.2 3.7,-13.1 1.4,-25.3 -3,-37.2 -2.6,-6.3 -8.4,-14.8 -15.2,-19.7 -1.4,-0.9 -0.9,-2.6 4,-0.2 12.2,6.3 21.3,18.5 23.4,35.4 6.3,3.7 9.1,12.2 18,9.6 -7.7,-8.7 -3.7,-22.9 -15.9,-44 -6.3,-11.2 -15,-19.2 -29.5,-26.2 -17.8,-8.9 -39.3,-15 -53.2,-20.4 -14.5,-5.9 -22.5,-12.2 -24.4,-33 -4.9,-2.1 -7.7,-5.4 -10.5,-8.9 -2.6,2.3 -4.2,7.3 -4.4,10.5 -9.4,-4.4 -14.5,-14.1 -15.2,-22.5 -3,0.5 -8.9,17.3 -30.7,9.4 12.9,-13.6 -4.7,-24.1 9.1,-40.3 2.6,-3.3 6.6,-4 4.9,-1.6 -12.6,18.3 2.6,24.4 -3.3,36.3 13.8,1.4 14.5,-16.9 26.7,-16.6 -1.6,8 0.2,19 5.2,22.5 2.8,-5.2 6.6,-8.4 11.7,-10.5 2.3,10.1 9.4,15.2 18,17.3 13.1,2.8 27.6,-4.9 38.4,-3.3 6.3,0.9 12.2,4.7 14.5,10.1 5.4,-5.2 10.1,-24.8 8,-26.5 -20.8,-12.9 -54.3,14.8 -64.2,-8.7 -1.6,-4.2 -2.6,-9.4 -1.9,-14.1 2.8,-19 15.5,-28.1 37.9,-26.5 9.8,0.7 31.6,5.4 37.2,1.2 4.7,-3.5 3.5,-16.9 0.5,-22.7 -5.9,-1.6 -12.6,-5.4 -12.2,-9.8 0.5,-3.7 4,4.2 11.7,1.9 2.1,-0.9 3.3,-8.9 1.9,-9.4 -12.4,-4.7 -29.5,-7.5 -44.7,-5.9 -2.3,6.8 -7.5,7.5 -8,12.6 -0.7,8.9 -3.5,16.2 -7.3,19.2 -1.4,0.9 -1.4,-0.5 -0.5,-3.3 1.2,-3.5 2.3,-9.4 0.7,-12.9 -3.5,-7.5 -18.3,-6.6 -18.5,-15 -0.2,-3.5 1.9,-3 16.4,0.5 6.1,1.4 6.8,1.6 7.7,-0.5 2.3,-5.4 -5.9,-8.4 -13.3,-10.3 -22.2,-5.4 -42.9,-4.7 -51.5,-1.4 8.9,4.2 11,12.6 8.2,16.6 -1.9,2.6 -0.5,-4.2 -10.5,-10.1 -10.8,-6.6 -30,-7.5 -33.7,-2.3 -2.1,3 -2.6,11.7 -2.1,15.7 1.2,6.8 3.3,13.6 11,18.7 10.3,7 17.3,3 16.4,5.4 -2.1,4.7 -15.7,4 -23.7,-2.3 -6.6,-5.2 -11.5,-12.2 -12.9,-22 -0.9,-7 0,-17.6 3.3,-21.3 4.2,-5.2 16.6,-6.3 28.1,-4 9.4,-2.8 21.5,-4.7 30.9,-4 -5.8,-5.3 -18.9,-8.1 -30.4,-8.5 m 133,84.3 c -2.3,4.7 -6.3,10.5 -10.5,12.6 6.8,1.2 18.3,3.5 26.7,2.6 10.5,-1.2 16.9,-11 11.2,-20.8 -0.5,-0.7 -0.2,-2.6 2.3,-1.2 13.1,7 10.3,26.2 -3.3,31.1 -13.1,4.7 -29.3,-2.3 -40.5,-4.2 1.6,3 2.8,7 3,9.1 3.3,0.9 11.2,3 10.8,6.1 -1.2,9.1 -2.8,19.9 -6.6,28.1 -3.3,7.5 -9.4,16.2 -16.6,17.1 1.4,-25.8 -27.2,-8 -43.6,-13.3 -1.4,18.3 27.4,23.2 58.1,36.3 15.9,6.8 31.6,15.5 42.2,31.1 12.2,-9.1 22.5,-14.8 38.6,-22.9 6.1,-3 11.7,-5.9 12.9,-11.7 0.9,-4.4 0.5,-16.6 -0.5,-23.7 -4.9,-35.8 30,-55.5 53.4,-37.5 -0.7,0.9 -1.4,2.8 -1.4,4.4 7.3,1.9 15,6.6 19.9,11.2 -1.6,1.9 -2.8,3.5 -3.5,5.9 5.9,2.6 13.3,8.9 15.9,15.2 -2.8,2.6 -6.3,7.7 -7.5,10.3 -4.4,9.1 -4.4,20.8 -6.3,31.4 -1.6,9.1 -5.2,19.2 -11,26.2 -12.6,15 -38.9,23.4 -51.8,39.3 -4.4,5.4 -4.4,17.1 3.3,19.7 -7.3,9.1 -19.4,10.5 -27.4,9.6 1.4,5.9 7.7,8.9 11,9.4 -11,21.8 -30.2,11 -39.6,16.9 -0.9,2.8 -1.6,4.7 -2.6,6.6 15.9,2.8 32.8,8.4 42.4,12.2 8.4,3.5 21.3,11 33.3,6.6 7.3,-2.6 14.3,-10.1 20.8,-15.2 8.7,-6.6 18.5,-14.3 37,-11.9 16.4,1.9 33.7,17.6 32.3,42.9 -1.9,-0.2 -3.5,-0.2 -4.7,0 0.7,4 1.6,12.4 0.9,17.8 -2.3,-0.5 -4.4,-0.2 -5.9,0 0.5,4.7 -0.9,14.3 -4.2,20.1 -4.7,-1.6 -11.7,-2.8 -18,-0.7 -17.3,5.6 -28.8,24.4 -56.2,22 -6.6,-0.5 -14.8,-2.1 -21.1,-3.5 -6.1,-1.4 -15,-4.7 -19.2,-4 -4.9,0.7 -5.2,4 -6.1,9.1 -12.2,-2.1 -19.2,-8.9 -21.1,-15.7 -5.4,4 -4.9,10.8 -4.9,17.1 -10.5,-0.9 -19.9,-4.9 -25.3,-12.4 -3.7,7.7 -13.6,15 -25.1,14.5 0.7,-4.7 0,-12.4 -5.2,-17.3 -6.8,8.4 -14.5,15 -25.8,22.9 20.8,10.5 44.3,24.1 64.6,41.5 18.5,15.9 40.5,41 41.5,66.5 0.7,27.9 -19.2,43.8 -35.1,55.5 -15.7,11.7 -28.8,21.1 -43.8,31.1 -1.4,0.9 -1.4,1.6 -0.9,2.8 3.5,10.5 8.9,20.8 15,28.3 3.5,4.4 10.1,12.4 16.9,12.6 10.5,0.2 25.3,-9.1 37.2,-10.8 26,-3.3 45,18.5 36.5,47.1 -1.6,-0.9 -4,-1.2 -5.4,-0.9 0.2,8.4 -2.6,17.6 -4.9,22.5 -2.1,-1.4 -4.4,-2.1 -6.3,-2.3 -1.2,7 -5.2,16.4 -10.1,21.1 -3.3,-3 -8.9,-4.4 -11.9,-4.9 -37,-1.6 -54.1,3.3 -67.4,-5.2 -4.2,-2.8 -8.9,-10.1 -12.6,-15 -4,-5.2 -8.4,-13.1 -12.4,-14.3 -5.2,-1.4 -8.4,0.7 -11,3.5 -3.7,-4.7 -5.9,-11.7 -4.9,-17.6 -4.9,-1.2 -10.5,2.8 -13.8,6.1 -4,-5.4 -6.3,-15.5 -5.2,-23.9 -6.3,-1.4 -12.6,2.8 -16.2,7 -6.3,-10.3 -4.9,-21.5 -1.2,-28.1 -8.7,-1.6 -16.4,-7.7 -19.2,-16.2 14.8,-6.3 16.9,-15.7 21.8,-26.2 6.3,-14.1 47.5,-15.5 52,-35.1 1.4,-6.3 -0.7,-14.5 -2.8,-18.5 -11.2,-21.3 -46.4,-27.6 -76.3,-27.4 -1.2,17.1 -3,31.6 -6.3,44 -3,11.7 -8.4,23.2 -15.7,31.4 -9.8,11 -26.9,17.1 -42.6,21.8 -15.7,4.7 -29.5,7.7 -46.1,11.7 -2.8,0.2 1.4,28.3 9.8,46.6 4.7,9.8 6.3,15.2 14.5,14.1 10.3,-1.6 24.4,-8.4 37.2,-8 26.5,0.9 45,29 30.4,57.8 -1.6,-0.9 -3,-1.6 -4.4,-1.9 -0.9,6.6 -3.7,12.9 -6.3,17.1 -2.1,-1.6 -3.7,-2.3 -5.9,-3 -2.6,8.2 -8,15 -12.4,18 -3.3,-3.3 -7.7,-6.3 -14.3,-6.6 -40,-1.4 -57.1,4.4 -73.5,-10.5 -5.4,-4.9 -9.4,-12.9 -12.9,-20.8 -6.8,-15.7 -12.2,-24.4 -23.9,-12.9 -4.7,-7.3 -5.4,-16.4 -2.1,-22.5 -5.2,-1.6 -12.4,0.7 -16.6,2.8 -4.2,-7.5 -3.7,-19.7 0.9,-25.8 -11,-1.2 -21.3,-10.3 -23.4,-22.2 6.3,0.2 14.3,-3.3 18.5,-7.5 -10.3,-2.1 -18.3,-11 -20.6,-22.7 6.8,0 14.5,-1.4 18.7,-4.9 9.6,-7.5 6.6,-22.9 21.8,-27.9 18,-6.1 53.4,2.1 54.3,-20.4 0.5,-9.4 -6.6,-27.4 -9.4,-38.6 -3,-11.9 -4.9,-24.4 -4.9,-38.2 -83.1,8 -109.8,-47.1 -107.5,-92 1.9,-36.5 15,-61.8 36.3,-104 26,-52 45,-89.2 43.3,-125.1 -0.7,-16.2 -6.8,-35.4 -18.7,-38.9 -23.2,-6.6 -32.1,19.7 -20.8,33.3 3.7,4.4 11,8 19.9,7 0.2,12.2 -5.9,19.4 -14.3,21.5 3,22 -6.1,40.7 -21.8,49.4 -0.2,-2.6 -0.9,-4.7 -1.4,-7 -11.2,8.9 -35.8,18.3 -51.5,7.5 4.7,-5.4 7,-8.2 10.1,-12.2 6.1,-8.4 11.5,-18.7 12.2,-30.4 0.7,-12.2 1.2,-24.4 1.6,-34.4 0.7,-31.6 21.8,-64.4 60.4,-61.6 32.6,2.3 51.1,29 52.7,64.6 1.9,41.2 -18.7,88.3 -46.8,154.1 -11.2,26.2 -21.5,53.4 -20.6,74.5 0.9,25.8 18.3,43.8 42.6,44.5 14.8,0.5 33.3,-6.8 41,-14.5 1.2,-1.2 2.1,-2.6 6.3,-8.4 18.5,-25.8 56.7,-42.4 59,-83.1 -12.6,4 -29.3,-4 -31.8,-13.3 11.5,-4.2 19.4,-13.3 16.6,-37.2 -0.2,-2.1 -0.5,-5.4 -0.5,-8.2 -6.3,1.2 -11.5,5.6 -14.5,10.3 -20.6,-21.3 -10.1,-48.5 -3,-67.4 -15.9,0.7 -28.6,-11.5 -30.2,-22.2 7.7,-0.9 12.4,-6.6 12.4,-13.3 -0.2,-5.6 -4,-14.1 -7,-20.6 -8.7,-19 -17.3,-38.2 -16.6,-64.4 -11.5,-5.4 -16.4,-18.7 -16.2,-29.3 9.8,-0.7 16.6,-5.4 17.1,-11.7 0.2,-4.9 1.2,-14.3 3,-20.4 -3.7,-3.7 -9.6,-14.8 -3.7,-27.9 4.2,0.9 10.8,1.2 14.8,-0.9 1.6,-0.9 5.2,-7 10.8,-11.2 -0.9,-4 0,-13.1 4.4,-19 2.8,1.2 7.3,2.6 11.7,3 19.2,1.9 65.1,-11.7 98.8,1.2 7,2.6 13.1,6.8 17.3,11 6.8,0.7 15.2,2.1 23.4,4 16.6,3.7 16.2,6.8 22.5,8 2.6,0.5 9.4,0.9 16.4,1.6 7.5,0.7 28.8,4.4 33,9.1 3.7,4.2 0,11.7 0.2,19.7 0.2,7.5 4,20.8 -1.2,29.7 -2.5,3.2 -5.8,4.6 -9.1,5.1"
   inkscape:connector-curvature="0" />

	<path
   id="path922"
   d="m 271.9,53.5 c -0.9,4.7 -5.2,5.9 -5.2,2.3 0,-10.1 -10.8,-15.2 -21.8,-16.4 -3,-0.2 0,-2.3 3,-2.8 10.9,-0.7 26.4,6.1 24,16.9"
   inkscape:connector-curvature="0" />

	<path
   id="path924"
   d="m 180.4,143.9 c -3.7,21.5 8,22.9 8.7,38.9 7.7,1.4 16.4,-4.2 21.1,-11.7 0.7,-1.2 1.4,0 0.7,2.8 -2.8,11.2 -17.1,22.2 -30.9,17.3 6.1,-14.5 -11.7,-28.6 -2.1,-46.4 1.8,-3.3 2.7,-2.8 2.5,-0.9"
   inkscape:connector-curvature="0" />

	<path
   id="path926"
   d="m 219,202.4 c 1.2,-1.6 2.3,-1.2 1.9,0.5 -10.8,35.8 15.7,38.4 17.8,69.3 11,-3 15.9,-11.9 19.4,-22.5 0.9,-2.8 2.3,-1.2 2.1,2.6 -0.5,8 -2.6,14.5 -5.2,18.3 -4.4,6.8 -14.8,15.5 -27.9,13.3 8.2,-26.9 -14.3,-37 -14.5,-61.1 0.1,-5.6 2.2,-15.7 6.4,-20.4"
   inkscape:connector-curvature="0" />

	<path
   id="path928"
   d="m 359.3,267.1 c -0.9,-1.2 -0.9,-3.5 3.7,0.7 21.3,19.7 0.2,53.9 14.8,70.7 -19.7,7.7 -38.6,-5.9 -40.7,-17.6 -0.9,-5.6 3,1.9 8.4,5.6 4.7,3 13.6,6.1 18,5.2 -5.6,-21.1 11.5,-38.9 -4.2,-64.6"
   inkscape:connector-curvature="0" />

</g>
    <rect
       style="opacity:1;fill:#00a7ff;fill-opacity:1;stroke:#000000;stroke-width:1;stroke-linecap:butt;stroke-linejoin:bevel;stroke-miterlimit:4;stroke-dasharray:none;stroke-dashoffset:0;stroke-opacity:1"
       id="rect1006"
       width="36.291557"
       height="36.291557"
       x="159.67171"
       y="116.09985" />
    <g
       id="g979"
       style="stroke:#000000;stroke-width:4.50854301;stroke-miterlimit:4;stroke-dasharray:none;stroke-opacity:1"
       transform="matrix(0.14239634,0,0,0.14239634,159.26788,115.69601)">
      <path
         inkscape:connector-curvature="0"
         id="path981"
         style="fill:none;stroke:#000000;stroke-width:4.50854301;stroke-linecap:round;stroke-linejoin:miter;stroke-miterlimit:4;stroke-dasharray:none;stroke-opacity:1"
         d="M 2.836,2.836 H 257.699 V 257.699 H 2.836 Z" />
    </g>
    <path
       style="fill:#ffffff;fill-opacity:1;stroke:none;stroke-width:0.26458332px;stroke-linecap:butt;stroke-linejoin:miter;stroke-opacity:1"
       d="m 160.16816,116.59774 c 0,0 35.31554,35.29345 35.31554,35.29345 0,0 0.0163,-35.30359 0.0163,-35.30359 0,0 -35.33184,0.0101 -35.33184,0.0101 z"
       id="path1010"
       inkscape:connector-curvature="0"
       inkscape:path-effect="#path-effect1012"
       inkscape:original-d="M 160.16816,116.59774 195.4837,151.89119 195.5,116.5876 Z"
       sodipodi:nodetypes="cccc" />
  </g>
</svg>
