<svg xmlns="http://www.w3.org/2000/svg" xmlns:xlink="http://www.w3.org/1999/xlink" x="0px" y="0px" viewBox="0 0 612 792" enable-background="new 0 0 612 792" xml:space="preserve">
            <g>
	<path d="M215.7,775.9c2.8,0.9,5.9,2.6,7.5,4.9c3.5-4.2,8.4-14.3,6.3-23.7C222.7,757.2,216.7,767.7,215.7,775.9 M233,747.4
		c2.6,4.9,4,13.8,3.3,19.2c0.9,0,2.1,0.5,3.3,0.9c2.1-5.2,4.2-17.8-0.5-26C237,741.8,233.7,744.1,233,747.4 M249.7,753.7
		c2.8-8.2,1.9-17.8-0.9-21.8c-0.7-0.9-4.9,1.4-5.6,4.2c2.3,4,4.4,11.9,4.2,17.1C248,753.2,249,753.5,249.7,753.7 M441.5,742.5
		c3.7,0.7,7.3,2.1,9.4,3.5c1.9-3,6.6-15.5,3.7-22.2C447.1,724.4,441.5,737.1,441.5,742.5 M459,715.5c1.9,3.3,3.5,10.1,3.5,14.3
		c0.9,0,2.3,0,3.3,0.2c2.8-8.2,1.9-18.3-0.9-22C463.2,707.8,460.2,712,459,715.5 M474.5,709.7c0.9-4.7,0-13.3-2.6-16.4
		c-1.6-1.2-3.7,2.1-4.7,6.1c2.1,2.8,4.4,7.5,4.9,10.3C473.1,709.7,473.8,709.7,474.5,709.7 M298.4,468.9
		c-10.8,4-24.1,13.1-24.6,15.5c-0.9,5.9-1.2,14.5-1.2,20.8c7-4,8.9-11.2,16.9-17.6c14.1-11.2,21.1-12.9,20.4-14.3
		C308,470.6,301.4,468.9,298.4,468.9 M451.8,678.1c-21.3-2.1-41.9,16.9-55.3,8.4c-6.1-3.7-14.3-12.6-20.4-21.5
		c-3.7-5.6-14.3-21.3-13.3-27.6c0.5-2.6,4.7-4.7,12.2-9.4c13.1-8.2,24.6-16.6,35.6-25.3c13.1-10.5,33.5-26.7,33.7-47.5
		c0.2-14.3-9.4-30-16.9-39.6c-13.1-16.9-35.4-33-56.9-45.2c-9.4-5.4-26.9-14.5-37.9-19c-10.8,6.1-16.2,7.7-25.3,12.6
		c6.8,2.6,12.2,7,11,10.8c-0.7,2.3-2.3,2.8-10.3,8.2c-4.7,3-10.3,7.7-13.1,10.1c-5.9,5.4-9.1,11.5-14.1,17.3c-3,3.5-4.9,4.9-8,7.3
		c0,3-0.2,5.9-0.5,9.6c34.9,0.9,66.5,11,81.7,30.7c2.1,2.8,5.6,7.7,6.8,11.2c6.8,18.3-4.7,33-14.5,39.6
		c-9.6,6.3-31.8,10.3-37.9,16.2c-4.7,4.4-5.2,12.6-11,19.7c-2.6,3.3-5.6,5.2-9.1,7.3c1.9,3.7,9.4,6.8,14.8,6.3
		c2.1-2.1,4.2-3.3,6.3-6.6c1.6-2.6,3-6.3,3-10.8c0-1.2,1.6-2.3,2.1,1.4c3.5,18-17.6,20.1-13.8,40.5c4-2.6,10.1-5.6,16.6-4
		c1.6-3.5,4-5.6,5.9-8.7c1.2-1.9,2.6-4.7,2.3-9.8c0-1.4,1.6-1.9,2.6,2.8c2.1,13.1-11.7,16.4-6.1,37c3.7-3.3,9.1-4.7,14.5-4.4
		c1.4-2.8,4.7-5.9,4-12.4c-0.2-1.4,1.4-2.8,2.6,1.9c2.3,9.6-5.9,13.3-1.6,26c14.5-5.9,18.3,4.7,24.8,12.9
		c3.7,4.7,8.4,12.2,12.4,15.2c9.8,7.5,37,0.9,57.8,3.3c1.4-11.2,8.7-21.3,17.6-23.4c-4.2-14.1-22.7-17.3-31.6-8
		c-1.4,1.4-0.5-2.3,2.1-4.7c8.7-7.3,24.4-5.2,32.1,4.9c1.6-3.7,4.4-7.3,6.8-7.3c-6.6-13.8-25.5-16.9-36.1-8.4
		c-0.9,0.7-1.2-1.2,1.9-3.7c8.2-7,25.3-6.6,35.6,4.2c0.7-4,2.8-7,4.9-7C466.3,684.6,458.6,678.8,451.8,678.1 M566.8,379.7
		c-6.6,4.4-6.6,15-5.4,21.5c3.5-0.7,6.3-0.5,9.4,0.5C572.8,394.9,570.7,383.9,566.8,379.7 M579.2,384.6c0.2-8-4.2-19-8.9-22.9
		c-2.3,0.2-2.8,5.6-2.6,9.4c4.4,3.7,7.5,9.4,8.9,14.1C577.5,384.9,578.5,384.6,579.2,384.6 M572.1,355.8c3.3,3.3,6.6,8.2,8,12.4
		c0.5-0.2,1.4-0.5,1.9-0.5c0.5-5.6-3-15.7-7.7-19.7C572.4,347.6,571.7,353.2,572.1,355.8 M545.7,168.5c-4.4-7-13.8-9.6-18.5-9.1
		c-1.6,6.8,7,14.8,13.1,16.9C542.2,171.8,544,169.6,545.7,168.5 M534,150.9c-4.2-4.2-15-9.1-22.9-6.6c-0.7,3.3,3.7,7.5,7,9.4
		c3.7-1.4,9.1-2.1,15-0.7C533.3,152.3,533.7,151.6,534,150.9 M490.6,172.2c-2.8-8-2.3-13.8,0.7-20.8c1.6-3.3,5.2-7.3,7.5-8.9
		c-4.2-0.9-5.9-3-6.3-4.9c-22.9,12.2-11,35.8-13.3,56.9c-1.4,13.1-18,17.8-29,24.6c-9.4,5.9-18.7,12.2-25.1,19
		c11.7,27.9,3.7,34,16.9,47.5c-2.3,2.6-6.6,4.4-9.6,4.7c-0.2,11.7-1.2,22.5-4.2,33c9.6-4,16.9,2.6,24.8-5.2
		c-7.5-5.6-7.7-15.9-5.9-21.8c1.2-3.3,2.6-3,2.6-2.1c0,1.6,0.2,3.3,0.7,4.2c4.2,1.2,13.3,1.6,19.4-2.3c-10.3-17.6,9.4-33,24.4-42.6
		c10.3-6.8,25.3-14.1,32.6-24.1c9.8-13.3,5.2-27.9,11.5-47.8c-7.5-3.7-17.3-11.2-16.4-21.8c-8,0.9-17.1,10.8-11.9,27.4
		c0.9,2.8-0.9,2.1-2.6-0.7c-6.6-12.2-0.7-26,6.6-30c-4.2-2.6-7.5-7.7-7-10.5c-11.9,4.4-15.7,14.8-13.1,28.6
		C493.9,176,492.3,176.2,490.6,172.2 M515.7,134.8c-4.2-2.1-12.2-3-17.8,0c-1.9,1.6,0.5,3.7,5.6,4.9c4-1.9,8.2-2.8,11.7-2.8
		C515.2,136.2,515.5,135.7,515.7,134.8 M368.2,114.8c-0.5-0.2-0.7,0.7-1.4,1.9c-0.9,1.4-2.6,3.7-4.9,5.9c2.1-0.2,6.6,0.2,8.7,0.7
		C370.5,120,368.9,115.1,368.2,114.8 M323.2,122.3c2.8,9.1,19,0.5,31.8-0.5c4-3.3,7-6.6,8.9-9.6
		C348.3,109.2,331.2,111.1,323.2,122.3 M371.4,92.8c1.2,2.8,2.1,6.1,2.3,7.3c0.2,1.2,0.2,2.3,0.7,2.1c2.1-1.2,6.1-6.1,6.6-9.6
		C378.5,93.1,373.8,93.1,371.4,92.8 M320.4,113.7c10.8-8.9,26.2-12.2,48.9-8.4c-0.2-4-2.3-9.6-4.2-12.2
		C342.2,89.3,320.9,88.9,320.4,113.7 M254.1,9.5c-34-0.9-45.9,4.2-66.7,5.2c-4,0-7.3-1.2-8.4-1.6c-0.9,2.3-1.4,8.2,0,11
		c-11.5,6.8-12.9,20.4-27.9,17.8c-0.9,4.2,1.6,9.8,4.4,11.9c1.6-0.7,4.7-1.6,4.2-0.2c-6.1,17.3-4.9,24.8-6.6,33.5
		c-0.9,5.2-8.4,10.1-15.2,11.2c-0.5,4.7,2.6,11.5,8.9,12.6c4-7.7,9.6-9.1,8.7-6.6c-1.6,4-3,11-3,16.2c-0.5,17.1,4,34.4,9.4,47.1
		c10.5,24.8,23.9,44.5,5.4,56.2c2.3,5.9,14.3,9.8,22.9,6.3c3.7-9.6,1.4-16.6,0.9-19c-0.2-0.9,0.7-0.9,1.6-0.2
		c5.4,4.4,5.6,13.3,4.7,20.4c-2.8,18.5-18.5,41.7-7.7,63.2c3.3-3,8.4-5.4,12.9-6.6c0.7-11.2,4.2-19.2,10.8-24.1
		c3.7-2.8,4.4-0.9,3.5,0.2c-8,9.8-7.5,28.3-5.4,45c2.6,20.8-4,33-10.1,36.3c7.7,4.9,20.4,1.9,26.9-1.4c4.9-2.6,12.2-8.7,15.2-14.5
		c-7.3-12.4-7.7-24.1-5.9-31.6c1.4-6.1,4.9-8.2,4.2-5.4c-4.7,26.2,20.4,38.2,19.7,63.7c12.9-4.2,18.5-19.9,17.6-34.4
		c0.2-1.9,1.9-0.9,2.6,0.9c7.3,20.8-6.1,50.1-30.7,47.5c3.5-12.4-0.5-26.9-4.2-34c-3.3,6.6-9.1,11.9-15,15.2
		c-0.7,6.6-2.3,12.2-3.3,16.9c-4,17.1-11.2,29-21.8,40c-23.2,23.9-31.8,25.8-47.1,48c-3.3,3.5-13.3,8.9-19.2,11.2
		c-46.1,18.3-84.8-6.6-81.7-56c1.2-19.9,11.7-45.9,19.9-64.9c24.1-55.3,46.8-101.4,49.9-143.8c2.3-34.7-12.4-69.3-48.5-69.6
		c-24.6-0.2-48,19.9-48.7,60.2c-0.2,23.7,0.2,41.7-9.8,57.8c-2.1,3.5-3.3,5.2-6.1,8.9c14.1,2.3,28.8-5.6,38.6-16.9
		c0.9,1.6,2.6,4.4,3,7c10.3-9.8,11.9-28.3,8.2-42.9c6.8,1.9,12.9-2.1,15.2-8c-15.7-2.1-26-16.9-23.7-33.3
		c1.4-9.6,10.1-20.1,21.5-21.5c30-3.5,38.9,26.9,38.4,55.7c-0.5,36.8-22.7,77-42.2,118.3c-15.7,33-33.7,66.7-35.6,98.1
		c-2.1,34.9,13.8,97.2,100.7,83.6c3.5-10.1,7.7-14.1,10.3-12.9c0.9,0.5,0.2,2.1-0.2,5.4c-1.6,10.8-2.1,17.3-1.6,28.8
		c0.9,22.5,10.8,45.2,11.9,61.4c1.9,25.8-11.5,28.8-32.6,31.1c-8.9,0.9-22,0.7-30.2,4.4c-4.7,2.3-7.7,13.8-12.4,19.7
		c-4.4,5.9-10.8,8.7-18.3,10.1c2.3,5.9,10.1,10.1,18.5,10.3c3-2.3,6.6-7.7,8-14.3c0.2-1.4,1.9-2.3,1.9,2.8
		c-0.5,13.6-12.9,28.3-26.9,30.4c2.6,6.6,12.4,11.5,20.1,10.5c6.1-3.3,10.8-9.1,13.1-17.1c0.5-2.3,2.1-1.2,1.9,1.9
		c-0.2,8.2-4.4,14.8-9.8,19.7c-5.4,5.2-9.1,11.7-7.3,19.7c3.5-1.9,10.5-2.1,15.9-1.2c2.6-2.6,6.3-6.6,7.5-12.6
		c0.5-2.1,2.3-1.6,2.1,3c-0.9,11.2-10.1,16.4-7.7,27.2c22-10.5,24.6,28.6,41.7,40.5c14.3,9.8,40.5,4,64.6,5.6
		c1.6-10.5,8.4-21.3,17.8-23.4c-4-15-21.5-14.5-29.5-9.4c-1.6,1.2-1.2-1.2,0.7-2.8c9.8-7.3,23.9-4.9,30.4,3.3c1.6-3,4.9-5.6,7.5-6.1
		c-6.8-14.5-23.4-17.1-35.4-9.8c-2.1,1.4-1.4-1.6,2.3-4c14.3-8.2,29.5-1.9,36.1,8.7c1.4-2.3,4.2-5.2,6.6-4.9
		c-4-9.4-14.1-15.9-27.2-15.7c-22.1,0.9-41.1,15.9-49.3,4.2c-9.4-13.1-20.8-36.8-21.8-65.3c0-2.3,0-4.7,2.3-5.4
		c17.3-4,34-7.3,48.7-11.9c15.9-5.2,31.6-10.5,42.9-23.9c12.2-14.1,15.5-46.1,17.3-71.9c0.9-12.4,2.1-30.7,3-44.3
		c1.6-21.8,6.1-35.6,14.5-39.6c2.1-0.9,3.3,0,1.6,3c-2.1,3.5-4,10.3-4.9,16.4c3.7-3,8.7-6.1,12.2-8c11.2-6.1,18.5-9.4,30.9-15.7
		c11.7-6.1,22.9-14.3,31.4-20.8c5.4-4.2,11.5-9.1,16.9-16.4c-1.4-1.6-2.6-4-3.3-5.6c-6.1,8-18.3,14.8-27.9,13.8
		c2.6-8.2-0.5-19.4-7.3-25.1c-7.5-6.1-12.2-9.6-17.1-14.8c-15.9-17.3-2.3-53.9-18.5-75.9c-1.2-2.3,1.4-1.6,4,0.9
		c9.4,8.9,11.2,22.7,13.1,36.5c1.4,10.3,2.1,22.7,7,30.4c8.7,13.8,28.8,16.9,27.9,37.5c6.3-1.6,14.3-7.7,14.5-13.1
		c-0.2-2.6-1.6-8-4.9-10.5c-0.9-0.7-0.2-1.9,2.1-1.2c4.7,1.4,7,7.3,9.1,11.5c2.1,4.7,4.4,8.7,7.7,12.4c5.9,6.6,12.9,10.1,13.8,20.8
		c5.4-1.6,12.4-7.3,13.1-14.3c-2.8-8-0.9-15.7-9.4-21.1c-1.2-0.7-0.7-2.6,4-0.7c10.8,4.4,9.1,17.3,14.3,24.1
		c3.5,4.7,7.5,8.7,14.5,10.1c0.7-6.6,3.5-13.6,9.4-17.3c-0.5-3.7-1.2-5.9-5.2-9.1c-1.2-0.9-0.9-2.6,3.7-0.2
		c9.6,4.9,6.8,18.7,19.7,24.1c3.7-11.5,17.6-7.5,30.9-4c6.6,1.6,14.8,3.7,21.8,4c26.2,1.2,30.7-16.4,53.6-22
		c-1.6-11.5,0.7-22,8.2-26.5c-9.6-11.5-25.5-5.6-30.9,2.3c-1.2,1.6-1.2-1.2,0.7-3.7c7-10.5,21.1-11.5,29.5-6.6
		c-0.2-3.5,1.2-9.4,3.3-9.6c-6.3-7-24.8-10.1-34.7,2.1c-1.2,1.4-0.9-1.2,0.5-3.5c7.3-10.1,23.7-12.9,34.9-4.4c0-2.3,1.2-7.3,3.7-7.5
		c-4.7-5.6-14.1-8.9-23.2-8c-26.5,2.6-33.7,31.8-62.3,29.5c-6.6-0.5-12.9-4.7-25.8-9.1c-6.8-2.3-15-4.7-22.5-6.3
		c-20.4-4.7-39.3-5.2-49.9-18.7c-3.5-4.7-6.6-10.3-7.7-18.5c-0.7-3.7,0.9-5.6,1.9-3c6.3,12.4,12.9,23.7,28.3,26.7
		c6.3-12.2,11.2-32.8,10.3-50.6c-6.8-3-6.8-6.1-8.9-7c0.9,13.6-4.2,27.6-8.4,32.1c-1.9-12.6-12.4-22-23.4-25.1
		c-1.4-0.5-1.6-2.6,4.2-2.3c4,0.2,13.3,2.8,17.6,8.2c3.7-13.1,1.4-25.3-3-37.2c-2.6-6.3-8.4-14.8-15.2-19.7c-1.4-0.9-0.9-2.6,4-0.2
		c12.2,6.3,21.3,18.5,23.4,35.4c6.3,3.7,9.1,12.2,18,9.6c-7.7-8.7-3.7-22.9-15.9-44c-6.3-11.2-15-19.2-29.5-26.2
		c-17.8-8.9-39.3-15-53.2-20.4c-14.5-5.9-22.5-12.2-24.4-33c-4.9-2.1-7.7-5.4-10.5-8.9c-2.6,2.3-4.2,7.3-4.4,10.5
		c-9.4-4.4-14.5-14.1-15.2-22.5c-3,0.5-8.9,17.3-30.7,9.4c12.9-13.6-4.7-24.1,9.1-40.3c2.6-3.3,6.6-4,4.9-1.6
		c-12.6,18.3,2.6,24.4-3.3,36.3c13.8,1.4,14.5-16.9,26.7-16.6c-1.6,8,0.2,19,5.2,22.5c2.8-5.2,6.6-8.4,11.7-10.5
		c2.3,10.1,9.4,15.2,18,17.3c13.1,2.8,27.6-4.9,38.4-3.3c6.3,0.9,12.2,4.7,14.5,10.1c5.4-5.2,10.1-24.8,8-26.5
		c-20.8-12.9-54.3,14.8-64.2-8.7c-1.6-4.2-2.6-9.4-1.9-14.1c2.8-19,15.5-28.1,37.9-26.5c9.8,0.7,31.6,5.4,37.2,1.2
		c4.7-3.5,3.5-16.9,0.5-22.7c-5.9-1.6-12.6-5.4-12.2-9.8c0.5-3.7,4,4.2,11.7,1.9c2.1-0.9,3.3-8.9,1.9-9.4
		c-12.4-4.7-29.5-7.5-44.7-5.9c-2.3,6.8-7.5,7.5-8,12.6c-0.7,8.9-3.5,16.2-7.3,19.2c-1.4,0.9-1.4-0.5-0.5-3.3
		c1.2-3.5,2.3-9.4,0.7-12.9c-3.5-7.5-18.3-6.6-18.5-15c-0.2-3.5,1.9-3,16.4,0.5c6.1,1.4,6.8,1.6,7.7-0.5c2.3-5.4-5.9-8.4-13.3-10.3
		c-22.2-5.4-42.9-4.7-51.5-1.4c8.9,4.2,11,12.6,8.2,16.6c-1.9,2.6-0.5-4.2-10.5-10.1c-10.8-6.6-30-7.5-33.7-2.3
		c-2.1,3-2.6,11.7-2.1,15.7c1.2,6.8,3.3,13.6,11,18.7c10.3,7,17.3,3,16.4,5.4c-2.1,4.7-15.7,4-23.7-2.3c-6.6-5.2-11.5-12.2-12.9-22
		c-0.9-7,0-17.6,3.3-21.3c4.2-5.2,16.6-6.3,28.1-4c9.4-2.8,21.5-4.7,30.9-4C278.7,12.7,265.6,9.9,254.1,9.5 M387.1,93.8
		c-2.3,4.7-6.3,10.5-10.5,12.6c6.8,1.2,18.3,3.5,26.7,2.6c10.5-1.2,16.9-11,11.2-20.8c-0.5-0.7-0.2-2.6,2.3-1.2
		c13.1,7,10.3,26.2-3.3,31.1c-13.1,4.7-29.3-2.3-40.5-4.2c1.6,3,2.8,7,3,9.1c3.3,0.9,11.2,3,10.8,6.1c-1.2,9.1-2.8,19.9-6.6,28.1
		c-3.3,7.5-9.4,16.2-16.6,17.1c1.4-25.8-27.2-8-43.6-13.3c-1.4,18.3,27.4,23.2,58.1,36.3c15.9,6.8,31.6,15.5,42.2,31.1
		c12.2-9.1,22.5-14.8,38.6-22.9c6.1-3,11.7-5.9,12.9-11.7c0.9-4.4,0.5-16.6-0.5-23.7c-4.9-35.8,30-55.5,53.4-37.5
		c-0.7,0.9-1.4,2.8-1.4,4.4c7.3,1.9,15,6.6,19.9,11.2c-1.6,1.9-2.8,3.5-3.5,5.9c5.9,2.6,13.3,8.9,15.9,15.2
		c-2.8,2.6-6.3,7.7-7.5,10.3c-4.4,9.1-4.4,20.8-6.3,31.4c-1.6,9.1-5.2,19.2-11,26.2c-12.6,15-38.9,23.4-51.8,39.3
		c-4.4,5.4-4.4,17.1,3.3,19.7c-7.3,9.1-19.4,10.5-27.4,9.6c1.4,5.9,7.7,8.9,11,9.4c-11,21.8-30.2,11-39.6,16.9
		c-0.9,2.8-1.6,4.7-2.6,6.6c15.9,2.8,32.8,8.4,42.4,12.2c8.4,3.5,21.3,11,33.3,6.6c7.3-2.6,14.3-10.1,20.8-15.2
		c8.7-6.6,18.5-14.3,37-11.9c16.4,1.9,33.7,17.6,32.3,42.9c-1.9-0.2-3.5-0.2-4.7,0c0.7,4,1.6,12.4,0.9,17.8c-2.3-0.5-4.4-0.2-5.9,0
		c0.5,4.7-0.9,14.3-4.2,20.1c-4.7-1.6-11.7-2.8-18-0.7c-17.3,5.6-28.8,24.4-56.2,22c-6.6-0.5-14.8-2.1-21.1-3.5
		c-6.1-1.4-15-4.7-19.2-4c-4.9,0.7-5.2,4-6.1,9.1c-12.2-2.1-19.2-8.9-21.1-15.7c-5.4,4-4.9,10.8-4.9,17.1
		c-10.5-0.9-19.9-4.9-25.3-12.4c-3.7,7.7-13.6,15-25.1,14.5c0.7-4.7,0-12.4-5.2-17.3c-6.8,8.4-14.5,15-25.8,22.9
		c20.8,10.5,44.3,24.1,64.6,41.5c18.5,15.9,40.5,41,41.5,66.5c0.7,27.9-19.2,43.8-35.1,55.5c-15.7,11.7-28.8,21.1-43.8,31.1
		c-1.4,0.9-1.4,1.6-0.9,2.8c3.5,10.5,8.9,20.8,15,28.3c3.5,4.4,10.1,12.4,16.9,12.6c10.5,0.2,25.3-9.1,37.2-10.8
		c26-3.3,45,18.5,36.5,47.1c-1.6-0.9-4-1.2-5.4-0.9c0.2,8.4-2.6,17.6-4.9,22.5c-2.1-1.4-4.4-2.1-6.3-2.3c-1.2,7-5.2,16.4-10.1,21.1
		c-3.3-3-8.9-4.4-11.9-4.9c-37-1.6-54.1,3.3-67.4-5.2c-4.2-2.8-8.9-10.1-12.6-15c-4-5.2-8.4-13.1-12.4-14.3c-5.2-1.4-8.4,0.7-11,3.5
		c-3.7-4.7-5.9-11.7-4.9-17.6c-4.9-1.2-10.5,2.8-13.8,6.1c-4-5.4-6.3-15.5-5.2-23.9c-6.3-1.4-12.6,2.8-16.2,7
		c-6.3-10.3-4.9-21.5-1.2-28.1c-8.7-1.6-16.4-7.7-19.2-16.2c14.8-6.3,16.9-15.7,21.8-26.2c6.3-14.1,47.5-15.5,52-35.1
		c1.4-6.3-0.7-14.5-2.8-18.5c-11.2-21.3-46.4-27.6-76.3-27.4c-1.2,17.1-3,31.6-6.3,44c-3,11.7-8.4,23.2-15.7,31.4
		c-9.8,11-26.9,17.1-42.6,21.8s-29.5,7.7-46.1,11.7c-2.8,0.2,1.4,28.3,9.8,46.6c4.7,9.8,6.3,15.2,14.5,14.1
		c10.3-1.6,24.4-8.4,37.2-8c26.5,0.9,45,29,30.4,57.8c-1.6-0.9-3-1.6-4.4-1.9c-0.9,6.6-3.7,12.9-6.3,17.1c-2.1-1.6-3.7-2.3-5.9-3
		c-2.6,8.2-8,15-12.4,18c-3.3-3.3-7.7-6.3-14.3-6.6c-40-1.4-57.1,4.4-73.5-10.5c-5.4-4.9-9.4-12.9-12.9-20.8
		c-6.8-15.7-12.2-24.4-23.9-12.9c-4.7-7.3-5.4-16.4-2.1-22.5c-5.2-1.6-12.4,0.7-16.6,2.8c-4.2-7.5-3.7-19.7,0.9-25.8
		c-11-1.2-21.3-10.3-23.4-22.2c6.3,0.2,14.3-3.3,18.5-7.5c-10.3-2.1-18.3-11-20.6-22.7c6.8,0,14.5-1.4,18.7-4.9
		c9.6-7.5,6.6-22.9,21.8-27.9c18-6.1,53.4,2.1,54.3-20.4c0.5-9.4-6.6-27.4-9.4-38.6c-3-11.9-4.9-24.4-4.9-38.2
		c-83.1,8-109.8-47.1-107.5-92c1.9-36.5,15-61.8,36.3-104c26-52,45-89.2,43.3-125.1c-0.7-16.2-6.8-35.4-18.7-38.9
		c-23.2-6.6-32.1,19.7-20.8,33.3c3.7,4.4,11,8,19.9,7c0.2,12.2-5.9,19.4-14.3,21.5c3,22-6.1,40.7-21.8,49.4c-0.2-2.6-0.9-4.7-1.4-7
		C40.3,266.4,15.7,275.8,0,265c4.7-5.4,7-8.2,10.1-12.2c6.1-8.4,11.5-18.7,12.2-30.4c0.7-12.2,1.2-24.4,1.6-34.4
		c0.7-31.6,21.8-64.4,60.4-61.6c32.6,2.3,51.1,29,52.7,64.6c1.9,41.2-18.7,88.3-46.8,154.1c-11.2,26.2-21.5,53.4-20.6,74.5
		c0.9,25.8,18.3,43.8,42.6,44.5c14.8,0.5,33.3-6.8,41-14.5c1.2-1.2,2.1-2.6,6.3-8.4c18.5-25.8,56.7-42.4,59-83.1
		c-12.6,4-29.3-4-31.8-13.3c11.5-4.2,19.4-13.3,16.6-37.2c-0.2-2.1-0.5-5.4-0.5-8.2c-6.3,1.2-11.5,5.6-14.5,10.3
		c-20.6-21.3-10.1-48.5-3-67.4c-15.9,0.7-28.6-11.5-30.2-22.2c7.7-0.9,12.4-6.6,12.4-13.3c-0.2-5.6-4-14.1-7-20.6
		c-8.7-19-17.3-38.2-16.6-64.4c-11.5-5.4-16.4-18.7-16.2-29.3c9.8-0.7,16.6-5.4,17.1-11.7c0.2-4.9,1.2-14.3,3-20.4
		c-3.7-3.7-9.6-14.8-3.7-27.9c4.2,0.9,10.8,1.2,14.8-0.9c1.6-0.9,5.2-7,10.8-11.2c-0.9-4,0-13.1,4.4-19c2.8,1.2,7.3,2.6,11.7,3
		c19.2,1.9,65.1-11.7,98.8,1.2c7,2.6,13.1,6.8,17.3,11c6.8,0.7,15.2,2.1,23.4,4c16.6,3.7,16.2,6.8,22.5,8c2.6,0.5,9.4,0.9,16.4,1.6
		c7.5,0.7,28.8,4.4,33,9.1c3.7,4.2,0,11.7,0.2,19.7c0.2,7.5,4,20.8-1.2,29.7C393.7,91.9,390.4,93.3,387.1,93.8"></path>
	<path d="M271.9,53.5c-0.9,4.7-5.2,5.9-5.2,2.3c0-10.1-10.8-15.2-21.8-16.4c-3-0.2,0-2.3,3-2.8C258.8,35.9,274.3,42.7,271.9,53.5"></path>
	<path d="M180.4,143.9c-3.7,21.5,8,22.9,8.7,38.9c7.7,1.4,16.4-4.2,21.1-11.7c0.7-1.2,1.4,0,0.7,2.8c-2.8,11.2-17.1,22.2-30.9,17.3
		c6.1-14.5-11.7-28.6-2.1-46.4C179.7,141.5,180.6,142,180.4,143.9"></path>
	<path d="M219,202.4c1.2-1.6,2.3-1.2,1.9,0.5c-10.8,35.8,15.7,38.4,17.8,69.3c11-3,15.9-11.9,19.4-22.5c0.9-2.8,2.3-1.2,2.1,2.6
		c-0.5,8-2.6,14.5-5.2,18.3c-4.4,6.8-14.8,15.5-27.9,13.3c8.2-26.9-14.3-37-14.5-61.1C212.7,217.2,214.8,207.1,219,202.4"></path>
	<path d="M359.3,267.1c-0.9-1.2-0.9-3.5,3.7,0.7c21.3,19.7,0.2,53.9,14.8,70.7c-19.7,7.7-38.6-5.9-40.7-17.6c-0.9-5.6,3,1.9,8.4,5.6
		c4.7,3,13.6,6.1,18,5.2C357.9,310.6,375,292.8,359.3,267.1"></path>
</g>
</svg>
